%TF.GenerationSoftware,KiCad,Pcbnew,5.1.10-88a1d61d58~90~ubuntu20.04.1*%
%TF.CreationDate,2021-07-21T12:39:05-04:00*%
%TF.ProjectId,VoltageControlledPWM,566f6c74-6167-4654-936f-6e74726f6c6c,V1.0*%
%TF.SameCoordinates,Original*%
%TF.FileFunction,Paste,Top*%
%TF.FilePolarity,Positive*%
%FSLAX46Y46*%
G04 Gerber Fmt 4.6, Leading zero omitted, Abs format (unit mm)*
G04 Created by KiCad (PCBNEW 5.1.10-88a1d61d58~90~ubuntu20.04.1) date 2021-07-21 12:39:05*
%MOMM*%
%LPD*%
G01*
G04 APERTURE LIST*
G04 APERTURE END LIST*
%TO.C,U1*%
G36*
G01*
X119453800Y-90927600D02*
X119153800Y-90927600D01*
G75*
G02*
X119003800Y-90777600I0J150000D01*
G01*
X119003800Y-89327600D01*
G75*
G02*
X119153800Y-89177600I150000J0D01*
G01*
X119453800Y-89177600D01*
G75*
G02*
X119603800Y-89327600I0J-150000D01*
G01*
X119603800Y-90777600D01*
G75*
G02*
X119453800Y-90927600I-150000J0D01*
G01*
G37*
G36*
G01*
X120723800Y-90927600D02*
X120423800Y-90927600D01*
G75*
G02*
X120273800Y-90777600I0J150000D01*
G01*
X120273800Y-89327600D01*
G75*
G02*
X120423800Y-89177600I150000J0D01*
G01*
X120723800Y-89177600D01*
G75*
G02*
X120873800Y-89327600I0J-150000D01*
G01*
X120873800Y-90777600D01*
G75*
G02*
X120723800Y-90927600I-150000J0D01*
G01*
G37*
G36*
G01*
X121993800Y-90927600D02*
X121693800Y-90927600D01*
G75*
G02*
X121543800Y-90777600I0J150000D01*
G01*
X121543800Y-89327600D01*
G75*
G02*
X121693800Y-89177600I150000J0D01*
G01*
X121993800Y-89177600D01*
G75*
G02*
X122143800Y-89327600I0J-150000D01*
G01*
X122143800Y-90777600D01*
G75*
G02*
X121993800Y-90927600I-150000J0D01*
G01*
G37*
G36*
G01*
X123263800Y-90927600D02*
X122963800Y-90927600D01*
G75*
G02*
X122813800Y-90777600I0J150000D01*
G01*
X122813800Y-89327600D01*
G75*
G02*
X122963800Y-89177600I150000J0D01*
G01*
X123263800Y-89177600D01*
G75*
G02*
X123413800Y-89327600I0J-150000D01*
G01*
X123413800Y-90777600D01*
G75*
G02*
X123263800Y-90927600I-150000J0D01*
G01*
G37*
G36*
G01*
X123263800Y-85777600D02*
X122963800Y-85777600D01*
G75*
G02*
X122813800Y-85627600I0J150000D01*
G01*
X122813800Y-84177600D01*
G75*
G02*
X122963800Y-84027600I150000J0D01*
G01*
X123263800Y-84027600D01*
G75*
G02*
X123413800Y-84177600I0J-150000D01*
G01*
X123413800Y-85627600D01*
G75*
G02*
X123263800Y-85777600I-150000J0D01*
G01*
G37*
G36*
G01*
X121993800Y-85777600D02*
X121693800Y-85777600D01*
G75*
G02*
X121543800Y-85627600I0J150000D01*
G01*
X121543800Y-84177600D01*
G75*
G02*
X121693800Y-84027600I150000J0D01*
G01*
X121993800Y-84027600D01*
G75*
G02*
X122143800Y-84177600I0J-150000D01*
G01*
X122143800Y-85627600D01*
G75*
G02*
X121993800Y-85777600I-150000J0D01*
G01*
G37*
G36*
G01*
X120723800Y-85777600D02*
X120423800Y-85777600D01*
G75*
G02*
X120273800Y-85627600I0J150000D01*
G01*
X120273800Y-84177600D01*
G75*
G02*
X120423800Y-84027600I150000J0D01*
G01*
X120723800Y-84027600D01*
G75*
G02*
X120873800Y-84177600I0J-150000D01*
G01*
X120873800Y-85627600D01*
G75*
G02*
X120723800Y-85777600I-150000J0D01*
G01*
G37*
G36*
G01*
X119453800Y-85777600D02*
X119153800Y-85777600D01*
G75*
G02*
X119003800Y-85627600I0J150000D01*
G01*
X119003800Y-84177600D01*
G75*
G02*
X119153800Y-84027600I150000J0D01*
G01*
X119453800Y-84027600D01*
G75*
G02*
X119603800Y-84177600I0J-150000D01*
G01*
X119603800Y-85627600D01*
G75*
G02*
X119453800Y-85777600I-150000J0D01*
G01*
G37*
%TD*%
M02*
