%TF.GenerationSoftware,KiCad,Pcbnew,5.1.10-88a1d61d58~90~ubuntu20.04.1*%
%TF.CreationDate,2021-07-18T14:42:11-04:00*%
%TF.ProjectId,VoltageControlledPWM,566f6c74-6167-4654-936f-6e74726f6c6c,V1.0*%
%TF.SameCoordinates,Original*%
%TF.FileFunction,Soldermask,Bot*%
%TF.FilePolarity,Negative*%
%FSLAX46Y46*%
G04 Gerber Fmt 4.6, Leading zero omitted, Abs format (unit mm)*
G04 Created by KiCad (PCBNEW 5.1.10-88a1d61d58~90~ubuntu20.04.1) date 2021-07-18 14:42:11*
%MOMM*%
%LPD*%
G01*
G04 APERTURE LIST*
%ADD10C,1.440000*%
%ADD11C,1.600000*%
%ADD12R,2.600000X2.600000*%
%ADD13C,2.600000*%
%ADD14O,1.050000X1.500000*%
%ADD15R,1.050000X1.500000*%
%ADD16O,1.600000X1.600000*%
%ADD17R,1.600000X1.600000*%
G04 APERTURE END LIST*
D10*
%TO.C,R11*%
X108458000Y-115874800D03*
X108458000Y-113334800D03*
X108458000Y-110794800D03*
%TD*%
%TO.C,R9*%
X139547600Y-104089200D03*
X139547600Y-101549200D03*
X139547600Y-99009200D03*
%TD*%
%TO.C,R3*%
X108458000Y-103632000D03*
X108458000Y-101092000D03*
X108458000Y-98552000D03*
%TD*%
%TO.C,R1*%
X108508800Y-91440000D03*
X108508800Y-88900000D03*
X108508800Y-86360000D03*
%TD*%
D11*
%TO.C,C1*%
X114096800Y-105867200D03*
X114096800Y-110867200D03*
%TD*%
%TO.C,C2*%
X115417600Y-84836000D03*
X115417600Y-89836000D03*
%TD*%
%TO.C,C4*%
X129032000Y-111222800D03*
X129032000Y-106222800D03*
%TD*%
%TO.C,C6*%
X137464800Y-109626400D03*
X137464800Y-114626400D03*
%TD*%
%TO.C,C3*%
X126949200Y-84865200D03*
X126949200Y-89865200D03*
%TD*%
%TO.C,C5*%
X113516400Y-116840000D03*
X118516400Y-116840000D03*
%TD*%
%TO.C,C7*%
X152908000Y-117246400D03*
X152908000Y-112246400D03*
%TD*%
D12*
%TO.C,J1*%
X98856800Y-86868000D03*
D13*
X98856800Y-91948000D03*
X98856800Y-97028000D03*
%TD*%
D12*
%TO.C,J2*%
X98856800Y-110337600D03*
D13*
X98856800Y-115417600D03*
%TD*%
%TO.C,J3*%
X149555200Y-86918800D03*
D12*
X149555200Y-91998800D03*
%TD*%
%TO.C,J4*%
X149453600Y-104140000D03*
D13*
X149453600Y-99060000D03*
%TD*%
D14*
%TO.C,Q1*%
X139446000Y-91744800D03*
X140716000Y-91744800D03*
D15*
X138176000Y-91744800D03*
%TD*%
D11*
%TO.C,R2*%
X114096800Y-102920800D03*
D16*
X114096800Y-92760800D03*
%TD*%
D11*
%TO.C,R4*%
X129489200Y-93675200D03*
D16*
X119329200Y-93675200D03*
%TD*%
%TO.C,R5*%
X134061200Y-89966800D03*
D11*
X134061200Y-100126800D03*
%TD*%
%TO.C,R6*%
X141122400Y-85293200D03*
D16*
X130962400Y-85293200D03*
%TD*%
D11*
%TO.C,R7*%
X133553200Y-117246400D03*
D16*
X133553200Y-107086400D03*
%TD*%
%TO.C,R8*%
X119278400Y-97739200D03*
D11*
X129438400Y-97739200D03*
%TD*%
D16*
%TO.C,R10*%
X119380000Y-101803200D03*
D11*
X129540000Y-101803200D03*
%TD*%
D16*
%TO.C,U2*%
X125171200Y-105816400D03*
X117551200Y-113436400D03*
X125171200Y-108356400D03*
X117551200Y-110896400D03*
X125171200Y-110896400D03*
X117551200Y-108356400D03*
X125171200Y-113436400D03*
D17*
X117551200Y-105816400D03*
%TD*%
%TO.C,U3*%
X141478000Y-117246400D03*
D16*
X149098000Y-109626400D03*
X144018000Y-117246400D03*
X146558000Y-109626400D03*
X146558000Y-117246400D03*
X144018000Y-109626400D03*
X149098000Y-117246400D03*
X141478000Y-109626400D03*
%TD*%
M02*
