M48
; DRILL file {KiCad 5.1.10-88a1d61d58~90~ubuntu20.04.1} date Sun Jul 18 14:42:18 2021
; FORMAT={-:-/ absolute / inch / decimal}
; #@! TF.CreationDate,2021-07-18T14:42:18-04:00
; #@! TF.GenerationSoftware,Kicad,Pcbnew,5.1.10-88a1d61d58~90~ubuntu20.04.1
; #@! TF.FileFunction,Plated,1,2,PTH
FMAT,2
INCH
T1C0.0157
T2C0.0295
T3C0.0315
T4C0.0512
T5C0.1181
%
G90
G05
T1
X4.798Y-3.32
X4.798Y-3.566
T2
X5.44Y-3.612
X5.49Y-3.612
X5.54Y-3.612
T3
X4.27Y-3.88
X4.27Y-3.98
X4.27Y-4.08
X4.27Y-4.362
X4.27Y-4.462
X4.27Y-4.562
X4.272Y-3.4
X4.272Y-3.5
X4.272Y-3.6
X4.4691Y-4.6
X4.492Y-3.652
X4.492Y-4.052
X4.492Y-4.168
X4.492Y-4.3649
X4.544Y-3.34
X4.544Y-3.5369
X4.628Y-4.166
X4.628Y-4.266
X4.628Y-4.366
X4.628Y-4.466
X4.666Y-4.6
X4.696Y-3.848
X4.698Y-3.688
X4.7Y-4.008
X4.928Y-4.166
X4.928Y-4.266
X4.928Y-4.366
X4.928Y-4.466
X4.998Y-3.3411
X4.998Y-3.538
X5.08Y-4.182
X5.08Y-4.3789
X5.096Y-3.848
X5.098Y-3.688
X5.1Y-4.008
X5.156Y-3.358
X5.258Y-4.216
X5.258Y-4.616
X5.278Y-3.542
X5.278Y-3.942
X5.412Y-4.316
X5.412Y-4.5129
X5.494Y-3.898
X5.494Y-3.998
X5.494Y-4.098
X5.556Y-3.358
X5.57Y-4.316
X5.57Y-4.616
X5.67Y-4.316
X5.67Y-4.616
X5.77Y-4.316
X5.77Y-4.616
X5.87Y-4.316
X5.87Y-4.616
X6.02Y-4.4191
X6.02Y-4.616
T4
X3.892Y-3.42
X3.892Y-3.62
X3.892Y-3.82
X3.892Y-4.344
X3.892Y-4.544
X5.884Y-3.9
X5.884Y-4.1
X5.888Y-3.422
X5.888Y-3.622
T5
X3.59Y-4.758
X3.596Y-3.208
X6.172Y-3.21
X6.176Y-4.758
T0
M30
