%TF.GenerationSoftware,KiCad,Pcbnew,5.1.10-88a1d61d58~90~ubuntu20.04.1*%
%TF.CreationDate,2021-07-20T20:50:42-04:00*%
%TF.ProjectId,VoltageControlledPWM,566f6c74-6167-4654-936f-6e74726f6c6c,V1.0*%
%TF.SameCoordinates,Original*%
%TF.FileFunction,Legend,Top*%
%TF.FilePolarity,Positive*%
%FSLAX46Y46*%
G04 Gerber Fmt 4.6, Leading zero omitted, Abs format (unit mm)*
G04 Created by KiCad (PCBNEW 5.1.10-88a1d61d58~90~ubuntu20.04.1) date 2021-07-20 20:50:42*
%MOMM*%
%LPD*%
G01*
G04 APERTURE LIST*
%ADD10C,0.120000*%
%ADD11C,0.100000*%
%ADD12C,0.150000*%
G04 APERTURE END LIST*
D10*
%TO.C,TP0*%
X102693600Y-103581200D02*
G75*
G03*
X102693600Y-103581200I-1500000J0D01*
G01*
%TO.C,TP3*%
X134342000Y-103530400D02*
G75*
G03*
X134342000Y-103530400I-1500000J0D01*
G01*
%TO.C,TP2*%
X130176400Y-115925600D02*
G75*
G03*
X130176400Y-115925600I-1500000J0D01*
G01*
%TO.C,TP1*%
X110008800Y-81838800D02*
G75*
G03*
X110008800Y-81838800I-1500000J0D01*
G01*
%TO.C,R11*%
X105928000Y-108449800D02*
X110998000Y-108449800D01*
X105928000Y-118219800D02*
X110998000Y-118219800D01*
X110998000Y-118219800D02*
X110998000Y-108449800D01*
X105928000Y-118219800D02*
X105928000Y-108449800D01*
%TO.C,R9*%
X137017600Y-96664200D02*
X142087600Y-96664200D01*
X137017600Y-106434200D02*
X142087600Y-106434200D01*
X142087600Y-106434200D02*
X142087600Y-96664200D01*
X137017600Y-106434200D02*
X137017600Y-96664200D01*
%TO.C,R3*%
X105928000Y-96207000D02*
X110998000Y-96207000D01*
X105928000Y-105977000D02*
X110998000Y-105977000D01*
X110998000Y-105977000D02*
X110998000Y-96207000D01*
X105928000Y-105977000D02*
X105928000Y-96207000D01*
%TO.C,R1*%
X105978800Y-84015000D02*
X111048800Y-84015000D01*
X105978800Y-93785000D02*
X111048800Y-93785000D01*
X111048800Y-93785000D02*
X111048800Y-84015000D01*
X105978800Y-93785000D02*
X105978800Y-84015000D01*
%TO.C,C1*%
X115466800Y-105897200D02*
X115466800Y-110837200D01*
X112726800Y-105897200D02*
X112726800Y-110837200D01*
X115466800Y-105897200D02*
X115151800Y-105897200D01*
X113041800Y-105897200D02*
X112726800Y-105897200D01*
X115466800Y-110837200D02*
X115151800Y-110837200D01*
X113041800Y-110837200D02*
X112726800Y-110837200D01*
%TO.C,C2*%
X116787600Y-84866000D02*
X116787600Y-89806000D01*
X114047600Y-84866000D02*
X114047600Y-89806000D01*
X116787600Y-84866000D02*
X116472600Y-84866000D01*
X114362600Y-84866000D02*
X114047600Y-84866000D01*
X116787600Y-89806000D02*
X116472600Y-89806000D01*
X114362600Y-89806000D02*
X114047600Y-89806000D01*
%TO.C,C4*%
X127977000Y-111192800D02*
X127662000Y-111192800D01*
X130402000Y-111192800D02*
X130087000Y-111192800D01*
X127977000Y-106252800D02*
X127662000Y-106252800D01*
X130402000Y-106252800D02*
X130087000Y-106252800D01*
X127662000Y-106252800D02*
X127662000Y-111192800D01*
X130402000Y-106252800D02*
X130402000Y-111192800D01*
%TO.C,C6*%
X138834800Y-109656400D02*
X138834800Y-114596400D01*
X136094800Y-109656400D02*
X136094800Y-114596400D01*
X138834800Y-109656400D02*
X138519800Y-109656400D01*
X136409800Y-109656400D02*
X136094800Y-109656400D01*
X138834800Y-114596400D02*
X138519800Y-114596400D01*
X136409800Y-114596400D02*
X136094800Y-114596400D01*
%TO.C,C3*%
X128004200Y-84895200D02*
X128319200Y-84895200D01*
X125579200Y-84895200D02*
X125894200Y-84895200D01*
X128004200Y-89835200D02*
X128319200Y-89835200D01*
X125579200Y-89835200D02*
X125894200Y-89835200D01*
X128319200Y-89835200D02*
X128319200Y-84895200D01*
X125579200Y-89835200D02*
X125579200Y-84895200D01*
%TO.C,C5*%
X113546400Y-115785000D02*
X113546400Y-115470000D01*
X113546400Y-118210000D02*
X113546400Y-117895000D01*
X118486400Y-115785000D02*
X118486400Y-115470000D01*
X118486400Y-118210000D02*
X118486400Y-117895000D01*
X118486400Y-115470000D02*
X113546400Y-115470000D01*
X118486400Y-118210000D02*
X113546400Y-118210000D01*
%TO.C,C7*%
X151538000Y-117216400D02*
X151538000Y-112276400D01*
X154278000Y-117216400D02*
X154278000Y-112276400D01*
X151538000Y-117216400D02*
X151853000Y-117216400D01*
X153963000Y-117216400D02*
X154278000Y-117216400D01*
X151538000Y-112276400D02*
X151853000Y-112276400D01*
X153963000Y-112276400D02*
X154278000Y-112276400D01*
%TO.C,J1*%
X100536800Y-91948000D02*
G75*
G03*
X100536800Y-91948000I-1680000J0D01*
G01*
X100536800Y-97028000D02*
G75*
G03*
X100536800Y-97028000I-1680000J0D01*
G01*
X94756800Y-84268000D02*
X94756800Y-99628000D01*
X96256800Y-84268000D02*
X96256800Y-99628000D01*
X101157800Y-84268000D02*
X101157800Y-99628000D01*
X104117800Y-84268000D02*
X104117800Y-99628000D01*
X94196800Y-84268000D02*
X94196800Y-99628000D01*
X104117800Y-84268000D02*
X94196800Y-84268000D01*
X104117800Y-99628000D02*
X94196800Y-99628000D01*
X99925800Y-93223000D02*
X99879800Y-93176000D01*
X97617800Y-90914000D02*
X97582800Y-90879000D01*
X100131800Y-93018000D02*
X100095800Y-92983000D01*
X97833800Y-90721000D02*
X97787800Y-90674000D01*
X99925800Y-98303000D02*
X99879800Y-98256000D01*
X97617800Y-95994000D02*
X97582800Y-95959000D01*
X100131800Y-98098000D02*
X100095800Y-98063000D01*
X97833800Y-95801000D02*
X97787800Y-95754000D01*
X94696800Y-84028000D02*
X93956800Y-84028000D01*
X93956800Y-84028000D02*
X93956800Y-84528000D01*
X97322044Y-87551318D02*
G75*
G02*
X97176800Y-86868000I1534756J683318D01*
G01*
X99539842Y-88403426D02*
G75*
G02*
X98172800Y-88403000I-683042J1535426D01*
G01*
X100392226Y-86184958D02*
G75*
G02*
X100391800Y-87552000I-1535426J-683042D01*
G01*
X98173758Y-85332574D02*
G75*
G02*
X99540800Y-85333000I683042J-1535426D01*
G01*
X97176547Y-86896805D02*
G75*
G02*
X97321800Y-86184000I1680253J28805D01*
G01*
%TO.C,J2*%
X100536800Y-115417600D02*
G75*
G03*
X100536800Y-115417600I-1680000J0D01*
G01*
X94756800Y-107737600D02*
X94756800Y-118017600D01*
X96256800Y-107737600D02*
X96256800Y-118017600D01*
X101157800Y-107737600D02*
X101157800Y-118017600D01*
X104117800Y-107737600D02*
X104117800Y-118017600D01*
X94196800Y-107737600D02*
X94196800Y-118017600D01*
X104117800Y-107737600D02*
X94196800Y-107737600D01*
X104117800Y-118017600D02*
X94196800Y-118017600D01*
X99925800Y-116692600D02*
X99879800Y-116645600D01*
X97617800Y-114383600D02*
X97582800Y-114348600D01*
X100131800Y-116487600D02*
X100095800Y-116452600D01*
X97833800Y-114190600D02*
X97787800Y-114143600D01*
X94696800Y-107497600D02*
X93956800Y-107497600D01*
X93956800Y-107497600D02*
X93956800Y-107997600D01*
X97322044Y-111020918D02*
G75*
G02*
X97176800Y-110337600I1534756J683318D01*
G01*
X99539842Y-111873026D02*
G75*
G02*
X98172800Y-111872600I-683042J1535426D01*
G01*
X100392226Y-109654558D02*
G75*
G02*
X100391800Y-111021600I-1535426J-683042D01*
G01*
X98173758Y-108802174D02*
G75*
G02*
X99540800Y-108802600I683042J-1535426D01*
G01*
X97176547Y-110366405D02*
G75*
G02*
X97321800Y-109653600I1680253J28805D01*
G01*
%TO.C,J3*%
X154455200Y-94838800D02*
X154455200Y-94338800D01*
X153715200Y-94838800D02*
X154455200Y-94838800D01*
X150578200Y-88145800D02*
X150624200Y-88192800D01*
X148280200Y-85848800D02*
X148316200Y-85883800D01*
X150794200Y-87952800D02*
X150829200Y-87987800D01*
X148486200Y-85643800D02*
X148532200Y-85690800D01*
X144294200Y-84318800D02*
X154215200Y-84318800D01*
X144294200Y-94598800D02*
X154215200Y-94598800D01*
X154215200Y-94598800D02*
X154215200Y-84318800D01*
X144294200Y-94598800D02*
X144294200Y-84318800D01*
X147254200Y-94598800D02*
X147254200Y-84318800D01*
X152155200Y-94598800D02*
X152155200Y-84318800D01*
X153655200Y-94598800D02*
X153655200Y-84318800D01*
X151235200Y-86918800D02*
G75*
G03*
X151235200Y-86918800I-1680000J0D01*
G01*
X151235453Y-91969995D02*
G75*
G02*
X151090200Y-92682800I-1680253J-28805D01*
G01*
X150238242Y-93534226D02*
G75*
G02*
X148871200Y-93533800I-683042J1535426D01*
G01*
X148019774Y-92681842D02*
G75*
G02*
X148020200Y-91314800I1535426J683042D01*
G01*
X148872158Y-90463374D02*
G75*
G02*
X150239200Y-90463800I683042J-1535426D01*
G01*
X151089956Y-91315482D02*
G75*
G02*
X151235200Y-91998800I-1534756J-683318D01*
G01*
%TO.C,J4*%
X151133600Y-99060000D02*
G75*
G03*
X151133600Y-99060000I-1680000J0D01*
G01*
X153553600Y-106740000D02*
X153553600Y-96460000D01*
X152053600Y-106740000D02*
X152053600Y-96460000D01*
X147152600Y-106740000D02*
X147152600Y-96460000D01*
X144192600Y-106740000D02*
X144192600Y-96460000D01*
X154113600Y-106740000D02*
X154113600Y-96460000D01*
X144192600Y-106740000D02*
X154113600Y-106740000D01*
X144192600Y-96460000D02*
X154113600Y-96460000D01*
X148384600Y-97785000D02*
X148430600Y-97832000D01*
X150692600Y-100094000D02*
X150727600Y-100129000D01*
X148178600Y-97990000D02*
X148214600Y-98025000D01*
X150476600Y-100287000D02*
X150522600Y-100334000D01*
X153613600Y-106980000D02*
X154353600Y-106980000D01*
X154353600Y-106980000D02*
X154353600Y-106480000D01*
X150988356Y-103456682D02*
G75*
G02*
X151133600Y-104140000I-1534756J-683318D01*
G01*
X148770558Y-102604574D02*
G75*
G02*
X150137600Y-102605000I683042J-1535426D01*
G01*
X147918174Y-104823042D02*
G75*
G02*
X147918600Y-103456000I1535426J683042D01*
G01*
X150136642Y-105675426D02*
G75*
G02*
X148769600Y-105675000I-683042J1535426D01*
G01*
X151133853Y-104111195D02*
G75*
G02*
X150988600Y-104824000I-1680253J-28805D01*
G01*
%TO.C,Q1*%
X137646000Y-93594800D02*
X141246000Y-93594800D01*
X137607522Y-93583278D02*
G75*
G02*
X139446000Y-89144800I1838478J1838478D01*
G01*
X141284478Y-93583278D02*
G75*
G03*
X139446000Y-89144800I-1838478J1838478D01*
G01*
%TO.C,R2*%
X112726800Y-101110800D02*
X115466800Y-101110800D01*
X115466800Y-101110800D02*
X115466800Y-94570800D01*
X115466800Y-94570800D02*
X112726800Y-94570800D01*
X112726800Y-94570800D02*
X112726800Y-101110800D01*
X114096800Y-101880800D02*
X114096800Y-101110800D01*
X114096800Y-93800800D02*
X114096800Y-94570800D01*
%TO.C,R4*%
X127679200Y-95045200D02*
X127679200Y-92305200D01*
X127679200Y-92305200D02*
X121139200Y-92305200D01*
X121139200Y-92305200D02*
X121139200Y-95045200D01*
X121139200Y-95045200D02*
X127679200Y-95045200D01*
X128449200Y-93675200D02*
X127679200Y-93675200D01*
X120369200Y-93675200D02*
X121139200Y-93675200D01*
%TO.C,R5*%
X134061200Y-91006800D02*
X134061200Y-91776800D01*
X134061200Y-99086800D02*
X134061200Y-98316800D01*
X132691200Y-91776800D02*
X132691200Y-98316800D01*
X135431200Y-91776800D02*
X132691200Y-91776800D01*
X135431200Y-98316800D02*
X135431200Y-91776800D01*
X132691200Y-98316800D02*
X135431200Y-98316800D01*
%TO.C,R6*%
X139312400Y-86663200D02*
X139312400Y-83923200D01*
X139312400Y-83923200D02*
X132772400Y-83923200D01*
X132772400Y-83923200D02*
X132772400Y-86663200D01*
X132772400Y-86663200D02*
X139312400Y-86663200D01*
X140082400Y-85293200D02*
X139312400Y-85293200D01*
X132002400Y-85293200D02*
X132772400Y-85293200D01*
%TO.C,R7*%
X132183200Y-115436400D02*
X134923200Y-115436400D01*
X134923200Y-115436400D02*
X134923200Y-108896400D01*
X134923200Y-108896400D02*
X132183200Y-108896400D01*
X132183200Y-108896400D02*
X132183200Y-115436400D01*
X133553200Y-116206400D02*
X133553200Y-115436400D01*
X133553200Y-108126400D02*
X133553200Y-108896400D01*
%TO.C,R8*%
X120318400Y-97739200D02*
X121088400Y-97739200D01*
X128398400Y-97739200D02*
X127628400Y-97739200D01*
X121088400Y-99109200D02*
X127628400Y-99109200D01*
X121088400Y-96369200D02*
X121088400Y-99109200D01*
X127628400Y-96369200D02*
X121088400Y-96369200D01*
X127628400Y-99109200D02*
X127628400Y-96369200D01*
%TO.C,R10*%
X120420000Y-101803200D02*
X121190000Y-101803200D01*
X128500000Y-101803200D02*
X127730000Y-101803200D01*
X121190000Y-103173200D02*
X127730000Y-103173200D01*
X121190000Y-100433200D02*
X121190000Y-103173200D01*
X127730000Y-100433200D02*
X121190000Y-100433200D01*
X127730000Y-103173200D02*
X127730000Y-100433200D01*
%TO.C,U1*%
X123768800Y-87477600D02*
X123768800Y-85527600D01*
X123768800Y-87477600D02*
X123768800Y-89427600D01*
X118648800Y-87477600D02*
X118648800Y-85527600D01*
X118648800Y-87477600D02*
X118648800Y-90927600D01*
%TO.C,U2*%
X124011200Y-104486400D02*
X122361200Y-104486400D01*
X124011200Y-114766400D02*
X124011200Y-104486400D01*
X118711200Y-114766400D02*
X124011200Y-114766400D01*
X118711200Y-104486400D02*
X118711200Y-114766400D01*
X120361200Y-104486400D02*
X118711200Y-104486400D01*
X122361200Y-104486400D02*
G75*
G02*
X120361200Y-104486400I-1000000J0D01*
G01*
%TO.C,U3*%
X140148000Y-114436400D02*
X140148000Y-116086400D01*
X140148000Y-116086400D02*
X150428000Y-116086400D01*
X150428000Y-116086400D02*
X150428000Y-110786400D01*
X150428000Y-110786400D02*
X140148000Y-110786400D01*
X140148000Y-110786400D02*
X140148000Y-112436400D01*
X140148000Y-112436400D02*
G75*
G02*
X140148000Y-114436400I0J-1000000D01*
G01*
%TO.C,TP0*%
D11*
X97921047Y-103408990D02*
X98206761Y-103408990D01*
X98063904Y-103908990D02*
X98063904Y-103408990D01*
X98373428Y-103908990D02*
X98373428Y-103408990D01*
X98563904Y-103408990D01*
X98611523Y-103432800D01*
X98635333Y-103456609D01*
X98659142Y-103504228D01*
X98659142Y-103575657D01*
X98635333Y-103623276D01*
X98611523Y-103647085D01*
X98563904Y-103670895D01*
X98373428Y-103670895D01*
X98968666Y-103408990D02*
X99016285Y-103408990D01*
X99063904Y-103432800D01*
X99087714Y-103456609D01*
X99111523Y-103504228D01*
X99135333Y-103599466D01*
X99135333Y-103718514D01*
X99111523Y-103813752D01*
X99087714Y-103861371D01*
X99063904Y-103885180D01*
X99016285Y-103908990D01*
X98968666Y-103908990D01*
X98921047Y-103885180D01*
X98897238Y-103861371D01*
X98873428Y-103813752D01*
X98849619Y-103718514D01*
X98849619Y-103599466D01*
X98873428Y-103504228D01*
X98897238Y-103456609D01*
X98921047Y-103432800D01*
X98968666Y-103408990D01*
X103352647Y-103432800D02*
X103305028Y-103408990D01*
X103233600Y-103408990D01*
X103162171Y-103432800D01*
X103114552Y-103480419D01*
X103090742Y-103528038D01*
X103066933Y-103623276D01*
X103066933Y-103694704D01*
X103090742Y-103789942D01*
X103114552Y-103837561D01*
X103162171Y-103885180D01*
X103233600Y-103908990D01*
X103281219Y-103908990D01*
X103352647Y-103885180D01*
X103376457Y-103861371D01*
X103376457Y-103694704D01*
X103281219Y-103694704D01*
X103590742Y-103908990D02*
X103590742Y-103408990D01*
X103876457Y-103908990D01*
X103876457Y-103408990D01*
X104114552Y-103908990D02*
X104114552Y-103408990D01*
X104233600Y-103408990D01*
X104305028Y-103432800D01*
X104352647Y-103480419D01*
X104376457Y-103528038D01*
X104400266Y-103623276D01*
X104400266Y-103694704D01*
X104376457Y-103789942D01*
X104352647Y-103837561D01*
X104305028Y-103885180D01*
X104233600Y-103908990D01*
X104114552Y-103908990D01*
%TO.C,TP3*%
X129874247Y-103358190D02*
X130159961Y-103358190D01*
X130017104Y-103858190D02*
X130017104Y-103358190D01*
X130326628Y-103858190D02*
X130326628Y-103358190D01*
X130517104Y-103358190D01*
X130564723Y-103382000D01*
X130588533Y-103405809D01*
X130612342Y-103453428D01*
X130612342Y-103524857D01*
X130588533Y-103572476D01*
X130564723Y-103596285D01*
X130517104Y-103620095D01*
X130326628Y-103620095D01*
X130779009Y-103358190D02*
X131088533Y-103358190D01*
X130921866Y-103548666D01*
X130993295Y-103548666D01*
X131040914Y-103572476D01*
X131064723Y-103596285D01*
X131088533Y-103643904D01*
X131088533Y-103762952D01*
X131064723Y-103810571D01*
X131040914Y-103834380D01*
X130993295Y-103858190D01*
X130850438Y-103858190D01*
X130802819Y-103834380D01*
X130779009Y-103810571D01*
X134627276Y-103834380D02*
X134698704Y-103858190D01*
X134817752Y-103858190D01*
X134865371Y-103834380D01*
X134889180Y-103810571D01*
X134912990Y-103762952D01*
X134912990Y-103715333D01*
X134889180Y-103667714D01*
X134865371Y-103643904D01*
X134817752Y-103620095D01*
X134722514Y-103596285D01*
X134674895Y-103572476D01*
X134651085Y-103548666D01*
X134627276Y-103501047D01*
X134627276Y-103453428D01*
X134651085Y-103405809D01*
X134674895Y-103382000D01*
X134722514Y-103358190D01*
X134841561Y-103358190D01*
X134912990Y-103382000D01*
X135079657Y-103524857D02*
X135174895Y-103858190D01*
X135270133Y-103620095D01*
X135365371Y-103858190D01*
X135460609Y-103524857D01*
X135841561Y-103834380D02*
X135793942Y-103858190D01*
X135698704Y-103858190D01*
X135651085Y-103834380D01*
X135627276Y-103786761D01*
X135627276Y-103596285D01*
X135651085Y-103548666D01*
X135698704Y-103524857D01*
X135793942Y-103524857D01*
X135841561Y-103548666D01*
X135865371Y-103596285D01*
X135865371Y-103643904D01*
X135627276Y-103691523D01*
X136270133Y-103834380D02*
X136222514Y-103858190D01*
X136127276Y-103858190D01*
X136079657Y-103834380D01*
X136055847Y-103786761D01*
X136055847Y-103596285D01*
X136079657Y-103548666D01*
X136127276Y-103524857D01*
X136222514Y-103524857D01*
X136270133Y-103548666D01*
X136293942Y-103596285D01*
X136293942Y-103643904D01*
X136055847Y-103691523D01*
X136508228Y-103524857D02*
X136508228Y-104024857D01*
X136508228Y-103548666D02*
X136555847Y-103524857D01*
X136651085Y-103524857D01*
X136698704Y-103548666D01*
X136722514Y-103572476D01*
X136746323Y-103620095D01*
X136746323Y-103762952D01*
X136722514Y-103810571D01*
X136698704Y-103834380D01*
X136651085Y-103858190D01*
X136555847Y-103858190D01*
X136508228Y-103834380D01*
%TO.C,TP2*%
X128147047Y-117836190D02*
X128432761Y-117836190D01*
X128289904Y-118336190D02*
X128289904Y-117836190D01*
X128599428Y-118336190D02*
X128599428Y-117836190D01*
X128789904Y-117836190D01*
X128837523Y-117860000D01*
X128861333Y-117883809D01*
X128885142Y-117931428D01*
X128885142Y-118002857D01*
X128861333Y-118050476D01*
X128837523Y-118074285D01*
X128789904Y-118098095D01*
X128599428Y-118098095D01*
X129075619Y-117883809D02*
X129099428Y-117860000D01*
X129147047Y-117836190D01*
X129266095Y-117836190D01*
X129313714Y-117860000D01*
X129337523Y-117883809D01*
X129361333Y-117931428D01*
X129361333Y-117979047D01*
X129337523Y-118050476D01*
X129051809Y-118336190D01*
X129361333Y-118336190D01*
X126412133Y-113518190D02*
X126697847Y-113518190D01*
X126554990Y-114018190D02*
X126554990Y-113518190D01*
X126864514Y-114018190D02*
X126864514Y-113684857D01*
X126864514Y-113780095D02*
X126888323Y-113732476D01*
X126912133Y-113708666D01*
X126959752Y-113684857D01*
X127007371Y-113684857D01*
X127174038Y-114018190D02*
X127174038Y-113684857D01*
X127174038Y-113518190D02*
X127150228Y-113542000D01*
X127174038Y-113565809D01*
X127197847Y-113542000D01*
X127174038Y-113518190D01*
X127174038Y-113565809D01*
X127626419Y-114018190D02*
X127626419Y-113756285D01*
X127602609Y-113708666D01*
X127554990Y-113684857D01*
X127459752Y-113684857D01*
X127412133Y-113708666D01*
X127626419Y-113994380D02*
X127578800Y-114018190D01*
X127459752Y-114018190D01*
X127412133Y-113994380D01*
X127388323Y-113946761D01*
X127388323Y-113899142D01*
X127412133Y-113851523D01*
X127459752Y-113827714D01*
X127578800Y-113827714D01*
X127626419Y-113803904D01*
X127864514Y-113684857D02*
X127864514Y-114018190D01*
X127864514Y-113732476D02*
X127888323Y-113708666D01*
X127935942Y-113684857D01*
X128007371Y-113684857D01*
X128054990Y-113708666D01*
X128078800Y-113756285D01*
X128078800Y-114018190D01*
X128531180Y-113684857D02*
X128531180Y-114089619D01*
X128507371Y-114137238D01*
X128483561Y-114161047D01*
X128435942Y-114184857D01*
X128364514Y-114184857D01*
X128316895Y-114161047D01*
X128531180Y-113994380D02*
X128483561Y-114018190D01*
X128388323Y-114018190D01*
X128340704Y-113994380D01*
X128316895Y-113970571D01*
X128293085Y-113922952D01*
X128293085Y-113780095D01*
X128316895Y-113732476D01*
X128340704Y-113708666D01*
X128388323Y-113684857D01*
X128483561Y-113684857D01*
X128531180Y-113708666D01*
X128959752Y-113994380D02*
X128912133Y-114018190D01*
X128816895Y-114018190D01*
X128769276Y-113994380D01*
X128745466Y-113946761D01*
X128745466Y-113756285D01*
X128769276Y-113708666D01*
X128816895Y-113684857D01*
X128912133Y-113684857D01*
X128959752Y-113708666D01*
X128983561Y-113756285D01*
X128983561Y-113803904D01*
X128745466Y-113851523D01*
X129531180Y-113518190D02*
X129650228Y-114018190D01*
X129745466Y-113661047D01*
X129840704Y-114018190D01*
X129959752Y-113518190D01*
X130364514Y-114018190D02*
X130364514Y-113756285D01*
X130340704Y-113708666D01*
X130293085Y-113684857D01*
X130197847Y-113684857D01*
X130150228Y-113708666D01*
X130364514Y-113994380D02*
X130316895Y-114018190D01*
X130197847Y-114018190D01*
X130150228Y-113994380D01*
X130126419Y-113946761D01*
X130126419Y-113899142D01*
X130150228Y-113851523D01*
X130197847Y-113827714D01*
X130316895Y-113827714D01*
X130364514Y-113803904D01*
X130554990Y-113684857D02*
X130674038Y-114018190D01*
X130793085Y-113684857D01*
X131174038Y-113994380D02*
X131126419Y-114018190D01*
X131031180Y-114018190D01*
X130983561Y-113994380D01*
X130959752Y-113946761D01*
X130959752Y-113756285D01*
X130983561Y-113708666D01*
X131031180Y-113684857D01*
X131126419Y-113684857D01*
X131174038Y-113708666D01*
X131197847Y-113756285D01*
X131197847Y-113803904D01*
X130959752Y-113851523D01*
%TO.C,TP1*%
X110367047Y-81564990D02*
X110652761Y-81564990D01*
X110509904Y-82064990D02*
X110509904Y-81564990D01*
X110819428Y-82064990D02*
X110819428Y-81564990D01*
X111009904Y-81564990D01*
X111057523Y-81588800D01*
X111081333Y-81612609D01*
X111105142Y-81660228D01*
X111105142Y-81731657D01*
X111081333Y-81779276D01*
X111057523Y-81803085D01*
X111009904Y-81826895D01*
X110819428Y-81826895D01*
X111581333Y-82064990D02*
X111295619Y-82064990D01*
X111438476Y-82064990D02*
X111438476Y-81564990D01*
X111390857Y-81636419D01*
X111343238Y-81684038D01*
X111295619Y-81707847D01*
X102096380Y-81990380D02*
X102167809Y-82014190D01*
X102286857Y-82014190D01*
X102334476Y-81990380D01*
X102358285Y-81966571D01*
X102382095Y-81918952D01*
X102382095Y-81871333D01*
X102358285Y-81823714D01*
X102334476Y-81799904D01*
X102286857Y-81776095D01*
X102191619Y-81752285D01*
X102144000Y-81728476D01*
X102120190Y-81704666D01*
X102096380Y-81657047D01*
X102096380Y-81609428D01*
X102120190Y-81561809D01*
X102144000Y-81538000D01*
X102191619Y-81514190D01*
X102310666Y-81514190D01*
X102382095Y-81538000D01*
X102810666Y-81680857D02*
X102810666Y-82180857D01*
X102810666Y-81990380D02*
X102763047Y-82014190D01*
X102667809Y-82014190D01*
X102620190Y-81990380D01*
X102596380Y-81966571D01*
X102572571Y-81918952D01*
X102572571Y-81776095D01*
X102596380Y-81728476D01*
X102620190Y-81704666D01*
X102667809Y-81680857D01*
X102763047Y-81680857D01*
X102810666Y-81704666D01*
X103263047Y-81680857D02*
X103263047Y-82014190D01*
X103048761Y-81680857D02*
X103048761Y-81942761D01*
X103072571Y-81990380D01*
X103120190Y-82014190D01*
X103191619Y-82014190D01*
X103239238Y-81990380D01*
X103263047Y-81966571D01*
X103715428Y-82014190D02*
X103715428Y-81752285D01*
X103691619Y-81704666D01*
X103644000Y-81680857D01*
X103548761Y-81680857D01*
X103501142Y-81704666D01*
X103715428Y-81990380D02*
X103667809Y-82014190D01*
X103548761Y-82014190D01*
X103501142Y-81990380D01*
X103477333Y-81942761D01*
X103477333Y-81895142D01*
X103501142Y-81847523D01*
X103548761Y-81823714D01*
X103667809Y-81823714D01*
X103715428Y-81799904D01*
X103953523Y-82014190D02*
X103953523Y-81680857D01*
X103953523Y-81776095D02*
X103977333Y-81728476D01*
X104001142Y-81704666D01*
X104048761Y-81680857D01*
X104096380Y-81680857D01*
X104453523Y-81990380D02*
X104405904Y-82014190D01*
X104310666Y-82014190D01*
X104263047Y-81990380D01*
X104239238Y-81942761D01*
X104239238Y-81752285D01*
X104263047Y-81704666D01*
X104310666Y-81680857D01*
X104405904Y-81680857D01*
X104453523Y-81704666D01*
X104477333Y-81752285D01*
X104477333Y-81799904D01*
X104239238Y-81847523D01*
X105024952Y-81514190D02*
X105144000Y-82014190D01*
X105239238Y-81657047D01*
X105334476Y-82014190D01*
X105453523Y-81514190D01*
X105858285Y-82014190D02*
X105858285Y-81752285D01*
X105834476Y-81704666D01*
X105786857Y-81680857D01*
X105691619Y-81680857D01*
X105644000Y-81704666D01*
X105858285Y-81990380D02*
X105810666Y-82014190D01*
X105691619Y-82014190D01*
X105644000Y-81990380D01*
X105620190Y-81942761D01*
X105620190Y-81895142D01*
X105644000Y-81847523D01*
X105691619Y-81823714D01*
X105810666Y-81823714D01*
X105858285Y-81799904D01*
X106048761Y-81680857D02*
X106167809Y-82014190D01*
X106286857Y-81680857D01*
X106667809Y-81990380D02*
X106620190Y-82014190D01*
X106524952Y-82014190D01*
X106477333Y-81990380D01*
X106453523Y-81942761D01*
X106453523Y-81752285D01*
X106477333Y-81704666D01*
X106524952Y-81680857D01*
X106620190Y-81680857D01*
X106667809Y-81704666D01*
X106691619Y-81752285D01*
X106691619Y-81799904D01*
X106453523Y-81847523D01*
%TO.C,R11*%
D12*
X105557580Y-113977657D02*
X105081390Y-114310990D01*
X105557580Y-114549085D02*
X104557580Y-114549085D01*
X104557580Y-114168133D01*
X104605200Y-114072895D01*
X104652819Y-114025276D01*
X104748057Y-113977657D01*
X104890914Y-113977657D01*
X104986152Y-114025276D01*
X105033771Y-114072895D01*
X105081390Y-114168133D01*
X105081390Y-114549085D01*
X105557580Y-113025276D02*
X105557580Y-113596704D01*
X105557580Y-113310990D02*
X104557580Y-113310990D01*
X104700438Y-113406228D01*
X104795676Y-113501466D01*
X104843295Y-113596704D01*
X105557580Y-112072895D02*
X105557580Y-112644323D01*
X105557580Y-112358609D02*
X104557580Y-112358609D01*
X104700438Y-112453847D01*
X104795676Y-112549085D01*
X104843295Y-112644323D01*
X107233980Y-113028266D02*
X107233980Y-113599695D01*
X107233980Y-113313980D02*
X106233980Y-113313980D01*
X106376838Y-113409219D01*
X106472076Y-113504457D01*
X106519695Y-113599695D01*
X106233980Y-112409219D02*
X106233980Y-112313980D01*
X106281600Y-112218742D01*
X106329219Y-112171123D01*
X106424457Y-112123504D01*
X106614933Y-112075885D01*
X106853028Y-112075885D01*
X107043504Y-112123504D01*
X107138742Y-112171123D01*
X107186361Y-112218742D01*
X107233980Y-112313980D01*
X107233980Y-112409219D01*
X107186361Y-112504457D01*
X107138742Y-112552076D01*
X107043504Y-112599695D01*
X106853028Y-112647314D01*
X106614933Y-112647314D01*
X106424457Y-112599695D01*
X106329219Y-112552076D01*
X106281600Y-112504457D01*
X106233980Y-112409219D01*
X106233980Y-111456838D02*
X106233980Y-111361600D01*
X106281600Y-111266361D01*
X106329219Y-111218742D01*
X106424457Y-111171123D01*
X106614933Y-111123504D01*
X106853028Y-111123504D01*
X107043504Y-111171123D01*
X107138742Y-111218742D01*
X107186361Y-111266361D01*
X107233980Y-111361600D01*
X107233980Y-111456838D01*
X107186361Y-111552076D01*
X107138742Y-111599695D01*
X107043504Y-111647314D01*
X106853028Y-111694933D01*
X106614933Y-111694933D01*
X106424457Y-111647314D01*
X106329219Y-111599695D01*
X106281600Y-111552076D01*
X106233980Y-111456838D01*
X107233980Y-110694933D02*
X106233980Y-110694933D01*
X107233980Y-110123504D02*
X106662552Y-110552076D01*
X106233980Y-110123504D02*
X106805409Y-110694933D01*
%TO.C,R9*%
X136596380Y-101715866D02*
X136120190Y-102049200D01*
X136596380Y-102287295D02*
X135596380Y-102287295D01*
X135596380Y-101906342D01*
X135644000Y-101811104D01*
X135691619Y-101763485D01*
X135786857Y-101715866D01*
X135929714Y-101715866D01*
X136024952Y-101763485D01*
X136072571Y-101811104D01*
X136120190Y-101906342D01*
X136120190Y-102287295D01*
X136596380Y-101239676D02*
X136596380Y-101049200D01*
X136548761Y-100953961D01*
X136501142Y-100906342D01*
X136358285Y-100811104D01*
X136167809Y-100763485D01*
X135786857Y-100763485D01*
X135691619Y-100811104D01*
X135644000Y-100858723D01*
X135596380Y-100953961D01*
X135596380Y-101144438D01*
X135644000Y-101239676D01*
X135691619Y-101287295D01*
X135786857Y-101334914D01*
X136024952Y-101334914D01*
X136120190Y-101287295D01*
X136167809Y-101239676D01*
X136215428Y-101144438D01*
X136215428Y-100953961D01*
X136167809Y-100858723D01*
X136120190Y-100811104D01*
X136024952Y-100763485D01*
X138425180Y-99852076D02*
X138425180Y-100423504D01*
X138425180Y-100137790D02*
X137425180Y-100137790D01*
X137568038Y-100233028D01*
X137663276Y-100328266D01*
X137710895Y-100423504D01*
X137425180Y-99233028D02*
X137425180Y-99137790D01*
X137472800Y-99042552D01*
X137520419Y-98994933D01*
X137615657Y-98947314D01*
X137806133Y-98899695D01*
X138044228Y-98899695D01*
X138234704Y-98947314D01*
X138329942Y-98994933D01*
X138377561Y-99042552D01*
X138425180Y-99137790D01*
X138425180Y-99233028D01*
X138377561Y-99328266D01*
X138329942Y-99375885D01*
X138234704Y-99423504D01*
X138044228Y-99471123D01*
X137806133Y-99471123D01*
X137615657Y-99423504D01*
X137520419Y-99375885D01*
X137472800Y-99328266D01*
X137425180Y-99233028D01*
X138425180Y-98471123D02*
X137425180Y-98471123D01*
X138425180Y-97899695D02*
X137853752Y-98328266D01*
X137425180Y-97899695D02*
X137996609Y-98471123D01*
%TO.C,R3*%
X105506780Y-101309466D02*
X105030590Y-101642800D01*
X105506780Y-101880895D02*
X104506780Y-101880895D01*
X104506780Y-101499942D01*
X104554400Y-101404704D01*
X104602019Y-101357085D01*
X104697257Y-101309466D01*
X104840114Y-101309466D01*
X104935352Y-101357085D01*
X104982971Y-101404704D01*
X105030590Y-101499942D01*
X105030590Y-101880895D01*
X104506780Y-100976133D02*
X104506780Y-100357085D01*
X104887733Y-100690419D01*
X104887733Y-100547561D01*
X104935352Y-100452323D01*
X104982971Y-100404704D01*
X105078209Y-100357085D01*
X105316304Y-100357085D01*
X105411542Y-100404704D01*
X105459161Y-100452323D01*
X105506780Y-100547561D01*
X105506780Y-100833276D01*
X105459161Y-100928514D01*
X105411542Y-100976133D01*
X106284780Y-100883885D02*
X106284780Y-101360076D01*
X106760971Y-101407695D01*
X106713352Y-101360076D01*
X106665733Y-101264838D01*
X106665733Y-101026742D01*
X106713352Y-100931504D01*
X106760971Y-100883885D01*
X106856209Y-100836266D01*
X107094304Y-100836266D01*
X107189542Y-100883885D01*
X107237161Y-100931504D01*
X107284780Y-101026742D01*
X107284780Y-101264838D01*
X107237161Y-101360076D01*
X107189542Y-101407695D01*
X106284780Y-100217219D02*
X106284780Y-100121980D01*
X106332400Y-100026742D01*
X106380019Y-99979123D01*
X106475257Y-99931504D01*
X106665733Y-99883885D01*
X106903828Y-99883885D01*
X107094304Y-99931504D01*
X107189542Y-99979123D01*
X107237161Y-100026742D01*
X107284780Y-100121980D01*
X107284780Y-100217219D01*
X107237161Y-100312457D01*
X107189542Y-100360076D01*
X107094304Y-100407695D01*
X106903828Y-100455314D01*
X106665733Y-100455314D01*
X106475257Y-100407695D01*
X106380019Y-100360076D01*
X106332400Y-100312457D01*
X106284780Y-100217219D01*
X106284780Y-99264838D02*
X106284780Y-99169600D01*
X106332400Y-99074361D01*
X106380019Y-99026742D01*
X106475257Y-98979123D01*
X106665733Y-98931504D01*
X106903828Y-98931504D01*
X107094304Y-98979123D01*
X107189542Y-99026742D01*
X107237161Y-99074361D01*
X107284780Y-99169600D01*
X107284780Y-99264838D01*
X107237161Y-99360076D01*
X107189542Y-99407695D01*
X107094304Y-99455314D01*
X106903828Y-99502933D01*
X106665733Y-99502933D01*
X106475257Y-99455314D01*
X106380019Y-99407695D01*
X106332400Y-99360076D01*
X106284780Y-99264838D01*
X107284780Y-98502933D02*
X106284780Y-98502933D01*
X107284780Y-97931504D02*
X106713352Y-98360076D01*
X106284780Y-97931504D02*
X106856209Y-98502933D01*
%TO.C,R1*%
X105557580Y-88965066D02*
X105081390Y-89298400D01*
X105557580Y-89536495D02*
X104557580Y-89536495D01*
X104557580Y-89155542D01*
X104605200Y-89060304D01*
X104652819Y-89012685D01*
X104748057Y-88965066D01*
X104890914Y-88965066D01*
X104986152Y-89012685D01*
X105033771Y-89060304D01*
X105081390Y-89155542D01*
X105081390Y-89536495D01*
X105557580Y-88012685D02*
X105557580Y-88584114D01*
X105557580Y-88298400D02*
X104557580Y-88298400D01*
X104700438Y-88393638D01*
X104795676Y-88488876D01*
X104843295Y-88584114D01*
X107335580Y-88491866D02*
X107335580Y-89063295D01*
X107335580Y-88777580D02*
X106335580Y-88777580D01*
X106478438Y-88872819D01*
X106573676Y-88968057D01*
X106621295Y-89063295D01*
X106335580Y-87872819D02*
X106335580Y-87777580D01*
X106383200Y-87682342D01*
X106430819Y-87634723D01*
X106526057Y-87587104D01*
X106716533Y-87539485D01*
X106954628Y-87539485D01*
X107145104Y-87587104D01*
X107240342Y-87634723D01*
X107287961Y-87682342D01*
X107335580Y-87777580D01*
X107335580Y-87872819D01*
X107287961Y-87968057D01*
X107240342Y-88015676D01*
X107145104Y-88063295D01*
X106954628Y-88110914D01*
X106716533Y-88110914D01*
X106526057Y-88063295D01*
X106430819Y-88015676D01*
X106383200Y-87968057D01*
X106335580Y-87872819D01*
X106335580Y-86920438D02*
X106335580Y-86825200D01*
X106383200Y-86729961D01*
X106430819Y-86682342D01*
X106526057Y-86634723D01*
X106716533Y-86587104D01*
X106954628Y-86587104D01*
X107145104Y-86634723D01*
X107240342Y-86682342D01*
X107287961Y-86729961D01*
X107335580Y-86825200D01*
X107335580Y-86920438D01*
X107287961Y-87015676D01*
X107240342Y-87063295D01*
X107145104Y-87110914D01*
X106954628Y-87158533D01*
X106716533Y-87158533D01*
X106526057Y-87110914D01*
X106430819Y-87063295D01*
X106383200Y-87015676D01*
X106335580Y-86920438D01*
X107335580Y-86158533D02*
X106335580Y-86158533D01*
X107335580Y-85587104D02*
X106764152Y-86015676D01*
X106335580Y-85587104D02*
X106907009Y-86158533D01*
%TO.C,C1*%
X112320342Y-108421466D02*
X112367961Y-108469085D01*
X112415580Y-108611942D01*
X112415580Y-108707180D01*
X112367961Y-108850038D01*
X112272723Y-108945276D01*
X112177485Y-108992895D01*
X111987009Y-109040514D01*
X111844152Y-109040514D01*
X111653676Y-108992895D01*
X111558438Y-108945276D01*
X111463200Y-108850038D01*
X111415580Y-108707180D01*
X111415580Y-108611942D01*
X111463200Y-108469085D01*
X111510819Y-108421466D01*
X112415580Y-107469085D02*
X112415580Y-108040514D01*
X112415580Y-107754800D02*
X111415580Y-107754800D01*
X111558438Y-107850038D01*
X111653676Y-107945276D01*
X111701295Y-108040514D01*
X112634780Y-110859580D02*
X112634780Y-110764342D01*
X112682400Y-110669104D01*
X112730019Y-110621485D01*
X112825257Y-110573866D01*
X113015733Y-110526247D01*
X113253828Y-110526247D01*
X113444304Y-110573866D01*
X113539542Y-110621485D01*
X113587161Y-110669104D01*
X113634780Y-110764342D01*
X113634780Y-110859580D01*
X113587161Y-110954819D01*
X113539542Y-111002438D01*
X113444304Y-111050057D01*
X113253828Y-111097676D01*
X113015733Y-111097676D01*
X112825257Y-111050057D01*
X112730019Y-111002438D01*
X112682400Y-110954819D01*
X112634780Y-110859580D01*
X113539542Y-110097676D02*
X113587161Y-110050057D01*
X113634780Y-110097676D01*
X113587161Y-110145295D01*
X113539542Y-110097676D01*
X113634780Y-110097676D01*
X112634780Y-109431009D02*
X112634780Y-109335771D01*
X112682400Y-109240533D01*
X112730019Y-109192914D01*
X112825257Y-109145295D01*
X113015733Y-109097676D01*
X113253828Y-109097676D01*
X113444304Y-109145295D01*
X113539542Y-109192914D01*
X113587161Y-109240533D01*
X113634780Y-109335771D01*
X113634780Y-109431009D01*
X113587161Y-109526247D01*
X113539542Y-109573866D01*
X113444304Y-109621485D01*
X113253828Y-109669104D01*
X113015733Y-109669104D01*
X112825257Y-109621485D01*
X112730019Y-109573866D01*
X112682400Y-109526247D01*
X112634780Y-109431009D01*
X112634780Y-108478628D02*
X112634780Y-108383390D01*
X112682400Y-108288152D01*
X112730019Y-108240533D01*
X112825257Y-108192914D01*
X113015733Y-108145295D01*
X113253828Y-108145295D01*
X113444304Y-108192914D01*
X113539542Y-108240533D01*
X113587161Y-108288152D01*
X113634780Y-108383390D01*
X113634780Y-108478628D01*
X113587161Y-108573866D01*
X113539542Y-108621485D01*
X113444304Y-108669104D01*
X113253828Y-108716723D01*
X113015733Y-108716723D01*
X112825257Y-108669104D01*
X112730019Y-108621485D01*
X112682400Y-108573866D01*
X112634780Y-108478628D01*
X113634780Y-107192914D02*
X113634780Y-107764342D01*
X113634780Y-107478628D02*
X112634780Y-107478628D01*
X112777638Y-107573866D01*
X112872876Y-107669104D01*
X112920495Y-107764342D01*
X112968114Y-106335771D02*
X113634780Y-106335771D01*
X112968114Y-106764342D02*
X113491923Y-106764342D01*
X113587161Y-106716723D01*
X113634780Y-106621485D01*
X113634780Y-106478628D01*
X113587161Y-106383390D01*
X113539542Y-106335771D01*
X112968114Y-106002438D02*
X112968114Y-105621485D01*
X113634780Y-105859580D02*
X112777638Y-105859580D01*
X112682400Y-105811961D01*
X112634780Y-105716723D01*
X112634780Y-105621485D01*
%TO.C,C2*%
X113539542Y-87745866D02*
X113587161Y-87793485D01*
X113634780Y-87936342D01*
X113634780Y-88031580D01*
X113587161Y-88174438D01*
X113491923Y-88269676D01*
X113396685Y-88317295D01*
X113206209Y-88364914D01*
X113063352Y-88364914D01*
X112872876Y-88317295D01*
X112777638Y-88269676D01*
X112682400Y-88174438D01*
X112634780Y-88031580D01*
X112634780Y-87936342D01*
X112682400Y-87793485D01*
X112730019Y-87745866D01*
X112730019Y-87364914D02*
X112682400Y-87317295D01*
X112634780Y-87222057D01*
X112634780Y-86983961D01*
X112682400Y-86888723D01*
X112730019Y-86841104D01*
X112825257Y-86793485D01*
X112920495Y-86793485D01*
X113063352Y-86841104D01*
X113634780Y-87412533D01*
X113634780Y-86793485D01*
X113853980Y-89028400D02*
X113853980Y-88933161D01*
X113901600Y-88837923D01*
X113949219Y-88790304D01*
X114044457Y-88742685D01*
X114234933Y-88695066D01*
X114473028Y-88695066D01*
X114663504Y-88742685D01*
X114758742Y-88790304D01*
X114806361Y-88837923D01*
X114853980Y-88933161D01*
X114853980Y-89028400D01*
X114806361Y-89123638D01*
X114758742Y-89171257D01*
X114663504Y-89218876D01*
X114473028Y-89266495D01*
X114234933Y-89266495D01*
X114044457Y-89218876D01*
X113949219Y-89171257D01*
X113901600Y-89123638D01*
X113853980Y-89028400D01*
X114758742Y-88266495D02*
X114806361Y-88218876D01*
X114853980Y-88266495D01*
X114806361Y-88314114D01*
X114758742Y-88266495D01*
X114853980Y-88266495D01*
X114853980Y-87266495D02*
X114853980Y-87837923D01*
X114853980Y-87552209D02*
X113853980Y-87552209D01*
X113996838Y-87647447D01*
X114092076Y-87742685D01*
X114139695Y-87837923D01*
X114187314Y-86409352D02*
X114853980Y-86409352D01*
X114187314Y-86837923D02*
X114711123Y-86837923D01*
X114806361Y-86790304D01*
X114853980Y-86695066D01*
X114853980Y-86552209D01*
X114806361Y-86456971D01*
X114758742Y-86409352D01*
X114187314Y-86076019D02*
X114187314Y-85695066D01*
X114853980Y-85933161D02*
X113996838Y-85933161D01*
X113901600Y-85885542D01*
X113853980Y-85790304D01*
X113853980Y-85695066D01*
%TO.C,C4*%
X127255542Y-108777066D02*
X127303161Y-108824685D01*
X127350780Y-108967542D01*
X127350780Y-109062780D01*
X127303161Y-109205638D01*
X127207923Y-109300876D01*
X127112685Y-109348495D01*
X126922209Y-109396114D01*
X126779352Y-109396114D01*
X126588876Y-109348495D01*
X126493638Y-109300876D01*
X126398400Y-109205638D01*
X126350780Y-109062780D01*
X126350780Y-108967542D01*
X126398400Y-108824685D01*
X126446019Y-108777066D01*
X126684114Y-107919923D02*
X127350780Y-107919923D01*
X126303161Y-108158019D02*
X127017447Y-108396114D01*
X127017447Y-107777066D01*
X127519180Y-110262800D02*
X127519180Y-110167561D01*
X127566800Y-110072323D01*
X127614419Y-110024704D01*
X127709657Y-109977085D01*
X127900133Y-109929466D01*
X128138228Y-109929466D01*
X128328704Y-109977085D01*
X128423942Y-110024704D01*
X128471561Y-110072323D01*
X128519180Y-110167561D01*
X128519180Y-110262800D01*
X128471561Y-110358038D01*
X128423942Y-110405657D01*
X128328704Y-110453276D01*
X128138228Y-110500895D01*
X127900133Y-110500895D01*
X127709657Y-110453276D01*
X127614419Y-110405657D01*
X127566800Y-110358038D01*
X127519180Y-110262800D01*
X128423942Y-109500895D02*
X128471561Y-109453276D01*
X128519180Y-109500895D01*
X128471561Y-109548514D01*
X128423942Y-109500895D01*
X128519180Y-109500895D01*
X128519180Y-108500895D02*
X128519180Y-109072323D01*
X128519180Y-108786609D02*
X127519180Y-108786609D01*
X127662038Y-108881847D01*
X127757276Y-108977085D01*
X127804895Y-109072323D01*
X127852514Y-107643752D02*
X128519180Y-107643752D01*
X127852514Y-108072323D02*
X128376323Y-108072323D01*
X128471561Y-108024704D01*
X128519180Y-107929466D01*
X128519180Y-107786609D01*
X128471561Y-107691371D01*
X128423942Y-107643752D01*
X127852514Y-107310419D02*
X127852514Y-106929466D01*
X128519180Y-107167561D02*
X127662038Y-107167561D01*
X127566800Y-107119942D01*
X127519180Y-107024704D01*
X127519180Y-106929466D01*
%TO.C,C6*%
X137771142Y-116955866D02*
X137818761Y-117003485D01*
X137866380Y-117146342D01*
X137866380Y-117241580D01*
X137818761Y-117384438D01*
X137723523Y-117479676D01*
X137628285Y-117527295D01*
X137437809Y-117574914D01*
X137294952Y-117574914D01*
X137104476Y-117527295D01*
X137009238Y-117479676D01*
X136914000Y-117384438D01*
X136866380Y-117241580D01*
X136866380Y-117146342D01*
X136914000Y-117003485D01*
X136961619Y-116955866D01*
X136866380Y-116098723D02*
X136866380Y-116289200D01*
X136914000Y-116384438D01*
X136961619Y-116432057D01*
X137104476Y-116527295D01*
X137294952Y-116574914D01*
X137675904Y-116574914D01*
X137771142Y-116527295D01*
X137818761Y-116479676D01*
X137866380Y-116384438D01*
X137866380Y-116193961D01*
X137818761Y-116098723D01*
X137771142Y-116051104D01*
X137675904Y-116003485D01*
X137437809Y-116003485D01*
X137342571Y-116051104D01*
X137294952Y-116098723D01*
X137247333Y-116193961D01*
X137247333Y-116384438D01*
X137294952Y-116479676D01*
X137342571Y-116527295D01*
X137437809Y-116574914D01*
X136053580Y-113768000D02*
X136053580Y-113672761D01*
X136101200Y-113577523D01*
X136148819Y-113529904D01*
X136244057Y-113482285D01*
X136434533Y-113434666D01*
X136672628Y-113434666D01*
X136863104Y-113482285D01*
X136958342Y-113529904D01*
X137005961Y-113577523D01*
X137053580Y-113672761D01*
X137053580Y-113768000D01*
X137005961Y-113863238D01*
X136958342Y-113910857D01*
X136863104Y-113958476D01*
X136672628Y-114006095D01*
X136434533Y-114006095D01*
X136244057Y-113958476D01*
X136148819Y-113910857D01*
X136101200Y-113863238D01*
X136053580Y-113768000D01*
X136958342Y-113006095D02*
X137005961Y-112958476D01*
X137053580Y-113006095D01*
X137005961Y-113053714D01*
X136958342Y-113006095D01*
X137053580Y-113006095D01*
X137053580Y-112006095D02*
X137053580Y-112577523D01*
X137053580Y-112291809D02*
X136053580Y-112291809D01*
X136196438Y-112387047D01*
X136291676Y-112482285D01*
X136339295Y-112577523D01*
X136386914Y-111148952D02*
X137053580Y-111148952D01*
X136386914Y-111577523D02*
X136910723Y-111577523D01*
X137005961Y-111529904D01*
X137053580Y-111434666D01*
X137053580Y-111291809D01*
X137005961Y-111196571D01*
X136958342Y-111148952D01*
X136386914Y-110815619D02*
X136386914Y-110434666D01*
X137053580Y-110672761D02*
X136196438Y-110672761D01*
X136101200Y-110625142D01*
X136053580Y-110529904D01*
X136053580Y-110434666D01*
%TO.C,C3*%
X125121942Y-87491866D02*
X125169561Y-87539485D01*
X125217180Y-87682342D01*
X125217180Y-87777580D01*
X125169561Y-87920438D01*
X125074323Y-88015676D01*
X124979085Y-88063295D01*
X124788609Y-88110914D01*
X124645752Y-88110914D01*
X124455276Y-88063295D01*
X124360038Y-88015676D01*
X124264800Y-87920438D01*
X124217180Y-87777580D01*
X124217180Y-87682342D01*
X124264800Y-87539485D01*
X124312419Y-87491866D01*
X124217180Y-87158533D02*
X124217180Y-86539485D01*
X124598133Y-86872819D01*
X124598133Y-86729961D01*
X124645752Y-86634723D01*
X124693371Y-86587104D01*
X124788609Y-86539485D01*
X125026704Y-86539485D01*
X125121942Y-86587104D01*
X125169561Y-86634723D01*
X125217180Y-86729961D01*
X125217180Y-87015676D01*
X125169561Y-87110914D01*
X125121942Y-87158533D01*
X125588780Y-88977600D02*
X125588780Y-88882361D01*
X125636400Y-88787123D01*
X125684019Y-88739504D01*
X125779257Y-88691885D01*
X125969733Y-88644266D01*
X126207828Y-88644266D01*
X126398304Y-88691885D01*
X126493542Y-88739504D01*
X126541161Y-88787123D01*
X126588780Y-88882361D01*
X126588780Y-88977600D01*
X126541161Y-89072838D01*
X126493542Y-89120457D01*
X126398304Y-89168076D01*
X126207828Y-89215695D01*
X125969733Y-89215695D01*
X125779257Y-89168076D01*
X125684019Y-89120457D01*
X125636400Y-89072838D01*
X125588780Y-88977600D01*
X126493542Y-88215695D02*
X126541161Y-88168076D01*
X126588780Y-88215695D01*
X126541161Y-88263314D01*
X126493542Y-88215695D01*
X126588780Y-88215695D01*
X126588780Y-87215695D02*
X126588780Y-87787123D01*
X126588780Y-87501409D02*
X125588780Y-87501409D01*
X125731638Y-87596647D01*
X125826876Y-87691885D01*
X125874495Y-87787123D01*
X125922114Y-86358552D02*
X126588780Y-86358552D01*
X125922114Y-86787123D02*
X126445923Y-86787123D01*
X126541161Y-86739504D01*
X126588780Y-86644266D01*
X126588780Y-86501409D01*
X126541161Y-86406171D01*
X126493542Y-86358552D01*
X125922114Y-86025219D02*
X125922114Y-85644266D01*
X126588780Y-85882361D02*
X125731638Y-85882361D01*
X125636400Y-85834742D01*
X125588780Y-85739504D01*
X125588780Y-85644266D01*
%TO.C,C5*%
X115250933Y-115063542D02*
X115203314Y-115111161D01*
X115060457Y-115158780D01*
X114965219Y-115158780D01*
X114822361Y-115111161D01*
X114727123Y-115015923D01*
X114679504Y-114920685D01*
X114631885Y-114730209D01*
X114631885Y-114587352D01*
X114679504Y-114396876D01*
X114727123Y-114301638D01*
X114822361Y-114206400D01*
X114965219Y-114158780D01*
X115060457Y-114158780D01*
X115203314Y-114206400D01*
X115250933Y-114254019D01*
X116155695Y-114158780D02*
X115679504Y-114158780D01*
X115631885Y-114634971D01*
X115679504Y-114587352D01*
X115774742Y-114539733D01*
X116012838Y-114539733D01*
X116108076Y-114587352D01*
X116155695Y-114634971D01*
X116203314Y-114730209D01*
X116203314Y-114968304D01*
X116155695Y-115063542D01*
X116108076Y-115111161D01*
X116012838Y-115158780D01*
X115774742Y-115158780D01*
X115679504Y-115111161D01*
X115631885Y-115063542D01*
X114527200Y-115479580D02*
X114622438Y-115479580D01*
X114717676Y-115527200D01*
X114765295Y-115574819D01*
X114812914Y-115670057D01*
X114860533Y-115860533D01*
X114860533Y-116098628D01*
X114812914Y-116289104D01*
X114765295Y-116384342D01*
X114717676Y-116431961D01*
X114622438Y-116479580D01*
X114527200Y-116479580D01*
X114431961Y-116431961D01*
X114384342Y-116384342D01*
X114336723Y-116289104D01*
X114289104Y-116098628D01*
X114289104Y-115860533D01*
X114336723Y-115670057D01*
X114384342Y-115574819D01*
X114431961Y-115527200D01*
X114527200Y-115479580D01*
X115289104Y-116384342D02*
X115336723Y-116431961D01*
X115289104Y-116479580D01*
X115241485Y-116431961D01*
X115289104Y-116384342D01*
X115289104Y-116479580D01*
X116289104Y-116479580D02*
X115717676Y-116479580D01*
X116003390Y-116479580D02*
X116003390Y-115479580D01*
X115908152Y-115622438D01*
X115812914Y-115717676D01*
X115717676Y-115765295D01*
X117146247Y-115812914D02*
X117146247Y-116479580D01*
X116717676Y-115812914D02*
X116717676Y-116336723D01*
X116765295Y-116431961D01*
X116860533Y-116479580D01*
X117003390Y-116479580D01*
X117098628Y-116431961D01*
X117146247Y-116384342D01*
X117479580Y-115812914D02*
X117860533Y-115812914D01*
X117622438Y-116479580D02*
X117622438Y-115622438D01*
X117670057Y-115527200D01*
X117765295Y-115479580D01*
X117860533Y-115479580D01*
%TO.C,C7*%
X153214342Y-110199466D02*
X153261961Y-110247085D01*
X153309580Y-110389942D01*
X153309580Y-110485180D01*
X153261961Y-110628038D01*
X153166723Y-110723276D01*
X153071485Y-110770895D01*
X152881009Y-110818514D01*
X152738152Y-110818514D01*
X152547676Y-110770895D01*
X152452438Y-110723276D01*
X152357200Y-110628038D01*
X152309580Y-110485180D01*
X152309580Y-110389942D01*
X152357200Y-110247085D01*
X152404819Y-110199466D01*
X152309580Y-109866133D02*
X152309580Y-109199466D01*
X153309580Y-109628038D01*
X151598380Y-116155600D02*
X151598380Y-116060361D01*
X151646000Y-115965123D01*
X151693619Y-115917504D01*
X151788857Y-115869885D01*
X151979333Y-115822266D01*
X152217428Y-115822266D01*
X152407904Y-115869885D01*
X152503142Y-115917504D01*
X152550761Y-115965123D01*
X152598380Y-116060361D01*
X152598380Y-116155600D01*
X152550761Y-116250838D01*
X152503142Y-116298457D01*
X152407904Y-116346076D01*
X152217428Y-116393695D01*
X151979333Y-116393695D01*
X151788857Y-116346076D01*
X151693619Y-116298457D01*
X151646000Y-116250838D01*
X151598380Y-116155600D01*
X152503142Y-115393695D02*
X152550761Y-115346076D01*
X152598380Y-115393695D01*
X152550761Y-115441314D01*
X152503142Y-115393695D01*
X152598380Y-115393695D01*
X152598380Y-114393695D02*
X152598380Y-114965123D01*
X152598380Y-114679409D02*
X151598380Y-114679409D01*
X151741238Y-114774647D01*
X151836476Y-114869885D01*
X151884095Y-114965123D01*
X151931714Y-113536552D02*
X152598380Y-113536552D01*
X151931714Y-113965123D02*
X152455523Y-113965123D01*
X152550761Y-113917504D01*
X152598380Y-113822266D01*
X152598380Y-113679409D01*
X152550761Y-113584171D01*
X152503142Y-113536552D01*
X151931714Y-113203219D02*
X151931714Y-112822266D01*
X152598380Y-113060361D02*
X151741238Y-113060361D01*
X151646000Y-113012742D01*
X151598380Y-112917504D01*
X151598380Y-112822266D01*
%TO.C,J1*%
X98359980Y-101374533D02*
X99074266Y-101374533D01*
X99217123Y-101422152D01*
X99312361Y-101517390D01*
X99359980Y-101660247D01*
X99359980Y-101755485D01*
X99359980Y-100374533D02*
X99359980Y-100945961D01*
X99359980Y-100660247D02*
X98359980Y-100660247D01*
X98502838Y-100755485D01*
X98598076Y-100850723D01*
X98645695Y-100945961D01*
D11*
X93232514Y-95828952D02*
X93232514Y-95448000D01*
X93422990Y-94948000D02*
X93422990Y-95233714D01*
X93422990Y-95090857D02*
X92922990Y-95090857D01*
X92994419Y-95138476D01*
X93042038Y-95186095D01*
X93065847Y-95233714D01*
X92970609Y-94757523D02*
X92946800Y-94733714D01*
X92922990Y-94686095D01*
X92922990Y-94567047D01*
X92946800Y-94519428D01*
X92970609Y-94495619D01*
X93018228Y-94471809D01*
X93065847Y-94471809D01*
X93137276Y-94495619D01*
X93422990Y-94781333D01*
X93422990Y-94471809D01*
X92922990Y-94328952D02*
X93422990Y-94162285D01*
X92922990Y-93995619D01*
X93589657Y-93328952D02*
X92875371Y-93328952D01*
X92946800Y-92328952D02*
X92922990Y-92376571D01*
X92922990Y-92448000D01*
X92946800Y-92519428D01*
X92994419Y-92567047D01*
X93042038Y-92590857D01*
X93137276Y-92614666D01*
X93208704Y-92614666D01*
X93303942Y-92590857D01*
X93351561Y-92567047D01*
X93399180Y-92519428D01*
X93422990Y-92448000D01*
X93422990Y-92400380D01*
X93399180Y-92328952D01*
X93375371Y-92305142D01*
X93208704Y-92305142D01*
X93208704Y-92400380D01*
X93422990Y-92090857D02*
X92922990Y-92090857D01*
X93422990Y-91805142D01*
X92922990Y-91805142D01*
X93422990Y-91567047D02*
X92922990Y-91567047D01*
X92922990Y-91448000D01*
X92946800Y-91376571D01*
X92994419Y-91328952D01*
X93042038Y-91305142D01*
X93137276Y-91281333D01*
X93208704Y-91281333D01*
X93303942Y-91305142D01*
X93351561Y-91328952D01*
X93399180Y-91376571D01*
X93422990Y-91448000D01*
X93422990Y-91567047D01*
X93589657Y-90567047D02*
X92875371Y-90567047D01*
X93232514Y-89828952D02*
X93232514Y-89448000D01*
X93422990Y-89638476D02*
X93042038Y-89638476D01*
X93422990Y-88948000D02*
X93422990Y-89233714D01*
X93422990Y-89090857D02*
X92922990Y-89090857D01*
X92994419Y-89138476D01*
X93042038Y-89186095D01*
X93065847Y-89233714D01*
X92970609Y-88757523D02*
X92946800Y-88733714D01*
X92922990Y-88686095D01*
X92922990Y-88567047D01*
X92946800Y-88519428D01*
X92970609Y-88495619D01*
X93018228Y-88471809D01*
X93065847Y-88471809D01*
X93137276Y-88495619D01*
X93422990Y-88781333D01*
X93422990Y-88471809D01*
X92922990Y-88328952D02*
X93422990Y-88162285D01*
X92922990Y-87995619D01*
%TO.C,J2*%
D12*
X98359980Y-106556133D02*
X99074266Y-106556133D01*
X99217123Y-106603752D01*
X99312361Y-106698990D01*
X99359980Y-106841847D01*
X99359980Y-106937085D01*
X98455219Y-106127561D02*
X98407600Y-106079942D01*
X98359980Y-105984704D01*
X98359980Y-105746609D01*
X98407600Y-105651371D01*
X98455219Y-105603752D01*
X98550457Y-105556133D01*
X98645695Y-105556133D01*
X98788552Y-105603752D01*
X99359980Y-106175180D01*
X99359980Y-105556133D01*
D11*
X92922990Y-118972838D02*
X92922990Y-118663314D01*
X93113466Y-118829980D01*
X93113466Y-118758552D01*
X93137276Y-118710933D01*
X93161085Y-118687123D01*
X93208704Y-118663314D01*
X93327752Y-118663314D01*
X93375371Y-118687123D01*
X93399180Y-118710933D01*
X93422990Y-118758552D01*
X93422990Y-118901409D01*
X93399180Y-118949028D01*
X93375371Y-118972838D01*
X93375371Y-118449028D02*
X93399180Y-118425219D01*
X93422990Y-118449028D01*
X93399180Y-118472838D01*
X93375371Y-118449028D01*
X93422990Y-118449028D01*
X92922990Y-118258552D02*
X92922990Y-117949028D01*
X93113466Y-118115695D01*
X93113466Y-118044266D01*
X93137276Y-117996647D01*
X93161085Y-117972838D01*
X93208704Y-117949028D01*
X93327752Y-117949028D01*
X93375371Y-117972838D01*
X93399180Y-117996647D01*
X93422990Y-118044266D01*
X93422990Y-118187123D01*
X93399180Y-118234742D01*
X93375371Y-118258552D01*
X92922990Y-117806171D02*
X93422990Y-117639504D01*
X92922990Y-117472838D01*
X93422990Y-116853790D02*
X93399180Y-116901409D01*
X93375371Y-116925219D01*
X93327752Y-116949028D01*
X93184895Y-116949028D01*
X93137276Y-116925219D01*
X93113466Y-116901409D01*
X93089657Y-116853790D01*
X93089657Y-116782361D01*
X93113466Y-116734742D01*
X93137276Y-116710933D01*
X93184895Y-116687123D01*
X93327752Y-116687123D01*
X93375371Y-116710933D01*
X93399180Y-116734742D01*
X93422990Y-116782361D01*
X93422990Y-116853790D01*
X93422990Y-116472838D02*
X93089657Y-116472838D01*
X93184895Y-116472838D02*
X93137276Y-116449028D01*
X93113466Y-116425219D01*
X93089657Y-116377600D01*
X93089657Y-116329980D01*
X92922990Y-115544266D02*
X92922990Y-115782361D01*
X93161085Y-115806171D01*
X93137276Y-115782361D01*
X93113466Y-115734742D01*
X93113466Y-115615695D01*
X93137276Y-115568076D01*
X93161085Y-115544266D01*
X93208704Y-115520457D01*
X93327752Y-115520457D01*
X93375371Y-115544266D01*
X93399180Y-115568076D01*
X93422990Y-115615695D01*
X93422990Y-115734742D01*
X93399180Y-115782361D01*
X93375371Y-115806171D01*
X93375371Y-115306171D02*
X93399180Y-115282361D01*
X93422990Y-115306171D01*
X93399180Y-115329980D01*
X93375371Y-115306171D01*
X93422990Y-115306171D01*
X92922990Y-114972838D02*
X92922990Y-114925219D01*
X92946800Y-114877600D01*
X92970609Y-114853790D01*
X93018228Y-114829980D01*
X93113466Y-114806171D01*
X93232514Y-114806171D01*
X93327752Y-114829980D01*
X93375371Y-114853790D01*
X93399180Y-114877600D01*
X93422990Y-114925219D01*
X93422990Y-114972838D01*
X93399180Y-115020457D01*
X93375371Y-115044266D01*
X93327752Y-115068076D01*
X93232514Y-115091885D01*
X93113466Y-115091885D01*
X93018228Y-115068076D01*
X92970609Y-115044266D01*
X92946800Y-115020457D01*
X92922990Y-114972838D01*
X92922990Y-114663314D02*
X93422990Y-114496647D01*
X92922990Y-114329980D01*
X93613466Y-113639504D02*
X93589657Y-113663314D01*
X93518228Y-113710933D01*
X93470609Y-113734742D01*
X93399180Y-113758552D01*
X93280133Y-113782361D01*
X93184895Y-113782361D01*
X93065847Y-113758552D01*
X92994419Y-113734742D01*
X92946800Y-113710933D01*
X92875371Y-113663314D01*
X92851561Y-113639504D01*
X92922990Y-113353790D02*
X92922990Y-113258552D01*
X92946800Y-113210933D01*
X92994419Y-113163314D01*
X93089657Y-113139504D01*
X93256323Y-113139504D01*
X93351561Y-113163314D01*
X93399180Y-113210933D01*
X93422990Y-113258552D01*
X93422990Y-113353790D01*
X93399180Y-113401409D01*
X93351561Y-113449028D01*
X93256323Y-113472838D01*
X93089657Y-113472838D01*
X92994419Y-113449028D01*
X92946800Y-113401409D01*
X92922990Y-113353790D01*
X93089657Y-112710933D02*
X93422990Y-112710933D01*
X93089657Y-112925219D02*
X93351561Y-112925219D01*
X93399180Y-112901409D01*
X93422990Y-112853790D01*
X93422990Y-112782361D01*
X93399180Y-112734742D01*
X93375371Y-112710933D01*
X93089657Y-112544266D02*
X93089657Y-112353790D01*
X92922990Y-112472838D02*
X93351561Y-112472838D01*
X93399180Y-112449028D01*
X93422990Y-112401409D01*
X93422990Y-112353790D01*
X93089657Y-112187123D02*
X93589657Y-112187123D01*
X93113466Y-112187123D02*
X93089657Y-112139504D01*
X93089657Y-112044266D01*
X93113466Y-111996647D01*
X93137276Y-111972838D01*
X93184895Y-111949028D01*
X93327752Y-111949028D01*
X93375371Y-111972838D01*
X93399180Y-111996647D01*
X93422990Y-112044266D01*
X93422990Y-112139504D01*
X93399180Y-112187123D01*
X93089657Y-111520457D02*
X93422990Y-111520457D01*
X93089657Y-111734742D02*
X93351561Y-111734742D01*
X93399180Y-111710933D01*
X93422990Y-111663314D01*
X93422990Y-111591885D01*
X93399180Y-111544266D01*
X93375371Y-111520457D01*
X93089657Y-111353790D02*
X93089657Y-111163314D01*
X92922990Y-111282361D02*
X93351561Y-111282361D01*
X93399180Y-111258552D01*
X93422990Y-111210933D01*
X93422990Y-111163314D01*
X93422990Y-110329980D02*
X93184895Y-110496647D01*
X93422990Y-110615695D02*
X92922990Y-110615695D01*
X92922990Y-110425219D01*
X92946800Y-110377600D01*
X92970609Y-110353790D01*
X93018228Y-110329980D01*
X93089657Y-110329980D01*
X93137276Y-110353790D01*
X93161085Y-110377600D01*
X93184895Y-110425219D01*
X93184895Y-110615695D01*
X93399180Y-109925219D02*
X93422990Y-109972838D01*
X93422990Y-110068076D01*
X93399180Y-110115695D01*
X93351561Y-110139504D01*
X93161085Y-110139504D01*
X93113466Y-110115695D01*
X93089657Y-110068076D01*
X93089657Y-109972838D01*
X93113466Y-109925219D01*
X93161085Y-109901409D01*
X93208704Y-109901409D01*
X93256323Y-110139504D01*
X93089657Y-109758552D02*
X93089657Y-109568076D01*
X93422990Y-109687123D02*
X92994419Y-109687123D01*
X92946800Y-109663314D01*
X92922990Y-109615695D01*
X92922990Y-109568076D01*
X93399180Y-109210933D02*
X93422990Y-109258552D01*
X93422990Y-109353790D01*
X93399180Y-109401409D01*
X93351561Y-109425219D01*
X93161085Y-109425219D01*
X93113466Y-109401409D01*
X93089657Y-109353790D01*
X93089657Y-109258552D01*
X93113466Y-109210933D01*
X93161085Y-109187123D01*
X93208704Y-109187123D01*
X93256323Y-109425219D01*
X93422990Y-108972838D02*
X93089657Y-108972838D01*
X93184895Y-108972838D02*
X93137276Y-108949028D01*
X93113466Y-108925219D01*
X93089657Y-108877600D01*
X93089657Y-108829980D01*
X93399180Y-108472838D02*
X93422990Y-108520457D01*
X93422990Y-108615695D01*
X93399180Y-108663314D01*
X93351561Y-108687123D01*
X93161085Y-108687123D01*
X93113466Y-108663314D01*
X93089657Y-108615695D01*
X93089657Y-108520457D01*
X93113466Y-108472838D01*
X93161085Y-108449028D01*
X93208704Y-108449028D01*
X93256323Y-108687123D01*
X93089657Y-108234742D02*
X93422990Y-108234742D01*
X93137276Y-108234742D02*
X93113466Y-108210933D01*
X93089657Y-108163314D01*
X93089657Y-108091885D01*
X93113466Y-108044266D01*
X93161085Y-108020457D01*
X93422990Y-108020457D01*
X93399180Y-107568076D02*
X93422990Y-107615695D01*
X93422990Y-107710933D01*
X93399180Y-107758552D01*
X93375371Y-107782361D01*
X93327752Y-107806171D01*
X93184895Y-107806171D01*
X93137276Y-107782361D01*
X93113466Y-107758552D01*
X93089657Y-107710933D01*
X93089657Y-107615695D01*
X93113466Y-107568076D01*
X93399180Y-107163314D02*
X93422990Y-107210933D01*
X93422990Y-107306171D01*
X93399180Y-107353790D01*
X93351561Y-107377600D01*
X93161085Y-107377600D01*
X93113466Y-107353790D01*
X93089657Y-107306171D01*
X93089657Y-107210933D01*
X93113466Y-107163314D01*
X93161085Y-107139504D01*
X93208704Y-107139504D01*
X93256323Y-107377600D01*
X93613466Y-106972838D02*
X93589657Y-106949028D01*
X93518228Y-106901409D01*
X93470609Y-106877600D01*
X93399180Y-106853790D01*
X93280133Y-106829980D01*
X93184895Y-106829980D01*
X93065847Y-106853790D01*
X92994419Y-106877600D01*
X92946800Y-106901409D01*
X92875371Y-106949028D01*
X92851561Y-106972838D01*
%TO.C,J3*%
D12*
X142747580Y-89792133D02*
X143461866Y-89792133D01*
X143604723Y-89839752D01*
X143699961Y-89934990D01*
X143747580Y-90077847D01*
X143747580Y-90173085D01*
X142747580Y-89411180D02*
X142747580Y-88792133D01*
X143128533Y-89125466D01*
X143128533Y-88982609D01*
X143176152Y-88887371D01*
X143223771Y-88839752D01*
X143319009Y-88792133D01*
X143557104Y-88792133D01*
X143652342Y-88839752D01*
X143699961Y-88887371D01*
X143747580Y-88982609D01*
X143747580Y-89268323D01*
X143699961Y-89363561D01*
X143652342Y-89411180D01*
D11*
X154941390Y-94887371D02*
X154941390Y-94577847D01*
X155131866Y-94744514D01*
X155131866Y-94673085D01*
X155155676Y-94625466D01*
X155179485Y-94601657D01*
X155227104Y-94577847D01*
X155346152Y-94577847D01*
X155393771Y-94601657D01*
X155417580Y-94625466D01*
X155441390Y-94673085D01*
X155441390Y-94815942D01*
X155417580Y-94863561D01*
X155393771Y-94887371D01*
X155393771Y-94363561D02*
X155417580Y-94339752D01*
X155441390Y-94363561D01*
X155417580Y-94387371D01*
X155393771Y-94363561D01*
X155441390Y-94363561D01*
X154941390Y-94173085D02*
X154941390Y-93863561D01*
X155131866Y-94030228D01*
X155131866Y-93958800D01*
X155155676Y-93911180D01*
X155179485Y-93887371D01*
X155227104Y-93863561D01*
X155346152Y-93863561D01*
X155393771Y-93887371D01*
X155417580Y-93911180D01*
X155441390Y-93958800D01*
X155441390Y-94101657D01*
X155417580Y-94149276D01*
X155393771Y-94173085D01*
X154941390Y-93720704D02*
X155441390Y-93554038D01*
X154941390Y-93387371D01*
X155441390Y-92768323D02*
X155417580Y-92815942D01*
X155393771Y-92839752D01*
X155346152Y-92863561D01*
X155203295Y-92863561D01*
X155155676Y-92839752D01*
X155131866Y-92815942D01*
X155108057Y-92768323D01*
X155108057Y-92696895D01*
X155131866Y-92649276D01*
X155155676Y-92625466D01*
X155203295Y-92601657D01*
X155346152Y-92601657D01*
X155393771Y-92625466D01*
X155417580Y-92649276D01*
X155441390Y-92696895D01*
X155441390Y-92768323D01*
X155441390Y-92387371D02*
X155108057Y-92387371D01*
X155203295Y-92387371D02*
X155155676Y-92363561D01*
X155131866Y-92339752D01*
X155108057Y-92292133D01*
X155108057Y-92244514D01*
X154941390Y-91458800D02*
X154941390Y-91696895D01*
X155179485Y-91720704D01*
X155155676Y-91696895D01*
X155131866Y-91649276D01*
X155131866Y-91530228D01*
X155155676Y-91482609D01*
X155179485Y-91458800D01*
X155227104Y-91434990D01*
X155346152Y-91434990D01*
X155393771Y-91458800D01*
X155417580Y-91482609D01*
X155441390Y-91530228D01*
X155441390Y-91649276D01*
X155417580Y-91696895D01*
X155393771Y-91720704D01*
X155393771Y-91220704D02*
X155417580Y-91196895D01*
X155441390Y-91220704D01*
X155417580Y-91244514D01*
X155393771Y-91220704D01*
X155441390Y-91220704D01*
X154941390Y-90887371D02*
X154941390Y-90839752D01*
X154965200Y-90792133D01*
X154989009Y-90768323D01*
X155036628Y-90744514D01*
X155131866Y-90720704D01*
X155250914Y-90720704D01*
X155346152Y-90744514D01*
X155393771Y-90768323D01*
X155417580Y-90792133D01*
X155441390Y-90839752D01*
X155441390Y-90887371D01*
X155417580Y-90934990D01*
X155393771Y-90958800D01*
X155346152Y-90982609D01*
X155250914Y-91006419D01*
X155131866Y-91006419D01*
X155036628Y-90982609D01*
X154989009Y-90958800D01*
X154965200Y-90934990D01*
X154941390Y-90887371D01*
X154941390Y-90577847D02*
X155441390Y-90411180D01*
X154941390Y-90244514D01*
X154941390Y-89768323D02*
X155441390Y-89601657D01*
X154941390Y-89434990D01*
X155441390Y-89196895D02*
X155417580Y-89244514D01*
X155393771Y-89268323D01*
X155346152Y-89292133D01*
X155203295Y-89292133D01*
X155155676Y-89268323D01*
X155131866Y-89244514D01*
X155108057Y-89196895D01*
X155108057Y-89125466D01*
X155131866Y-89077847D01*
X155155676Y-89054038D01*
X155203295Y-89030228D01*
X155346152Y-89030228D01*
X155393771Y-89054038D01*
X155417580Y-89077847D01*
X155441390Y-89125466D01*
X155441390Y-89196895D01*
X155441390Y-88744514D02*
X155417580Y-88792133D01*
X155369961Y-88815942D01*
X154941390Y-88815942D01*
X155108057Y-88625466D02*
X155108057Y-88434990D01*
X154941390Y-88554038D02*
X155369961Y-88554038D01*
X155417580Y-88530228D01*
X155441390Y-88482609D01*
X155441390Y-88434990D01*
X155441390Y-88054038D02*
X155179485Y-88054038D01*
X155131866Y-88077847D01*
X155108057Y-88125466D01*
X155108057Y-88220704D01*
X155131866Y-88268323D01*
X155417580Y-88054038D02*
X155441390Y-88101657D01*
X155441390Y-88220704D01*
X155417580Y-88268323D01*
X155369961Y-88292133D01*
X155322342Y-88292133D01*
X155274723Y-88268323D01*
X155250914Y-88220704D01*
X155250914Y-88101657D01*
X155227104Y-88054038D01*
X155108057Y-87601657D02*
X155512819Y-87601657D01*
X155560438Y-87625466D01*
X155584247Y-87649276D01*
X155608057Y-87696895D01*
X155608057Y-87768323D01*
X155584247Y-87815942D01*
X155417580Y-87601657D02*
X155441390Y-87649276D01*
X155441390Y-87744514D01*
X155417580Y-87792133D01*
X155393771Y-87815942D01*
X155346152Y-87839752D01*
X155203295Y-87839752D01*
X155155676Y-87815942D01*
X155131866Y-87792133D01*
X155108057Y-87744514D01*
X155108057Y-87649276D01*
X155131866Y-87601657D01*
X155417580Y-87173085D02*
X155441390Y-87220704D01*
X155441390Y-87315942D01*
X155417580Y-87363561D01*
X155369961Y-87387371D01*
X155179485Y-87387371D01*
X155131866Y-87363561D01*
X155108057Y-87315942D01*
X155108057Y-87220704D01*
X155131866Y-87173085D01*
X155179485Y-87149276D01*
X155227104Y-87149276D01*
X155274723Y-87387371D01*
X155393771Y-86268323D02*
X155417580Y-86292133D01*
X155441390Y-86363561D01*
X155441390Y-86411180D01*
X155417580Y-86482609D01*
X155369961Y-86530228D01*
X155322342Y-86554038D01*
X155227104Y-86577847D01*
X155155676Y-86577847D01*
X155060438Y-86554038D01*
X155012819Y-86530228D01*
X154965200Y-86482609D01*
X154941390Y-86411180D01*
X154941390Y-86363561D01*
X154965200Y-86292133D01*
X154989009Y-86268323D01*
X155441390Y-85982609D02*
X155417580Y-86030228D01*
X155393771Y-86054038D01*
X155346152Y-86077847D01*
X155203295Y-86077847D01*
X155155676Y-86054038D01*
X155131866Y-86030228D01*
X155108057Y-85982609D01*
X155108057Y-85911180D01*
X155131866Y-85863561D01*
X155155676Y-85839752D01*
X155203295Y-85815942D01*
X155346152Y-85815942D01*
X155393771Y-85839752D01*
X155417580Y-85863561D01*
X155441390Y-85911180D01*
X155441390Y-85982609D01*
X155108057Y-85601657D02*
X155441390Y-85601657D01*
X155155676Y-85601657D02*
X155131866Y-85577847D01*
X155108057Y-85530228D01*
X155108057Y-85458800D01*
X155131866Y-85411180D01*
X155179485Y-85387371D01*
X155441390Y-85387371D01*
X155108057Y-85220704D02*
X155108057Y-85030228D01*
X154941390Y-85149276D02*
X155369961Y-85149276D01*
X155417580Y-85125466D01*
X155441390Y-85077847D01*
X155441390Y-85030228D01*
X155441390Y-84863561D02*
X155108057Y-84863561D01*
X155203295Y-84863561D02*
X155155676Y-84839752D01*
X155131866Y-84815942D01*
X155108057Y-84768323D01*
X155108057Y-84720704D01*
X155441390Y-84482609D02*
X155417580Y-84530228D01*
X155393771Y-84554038D01*
X155346152Y-84577847D01*
X155203295Y-84577847D01*
X155155676Y-84554038D01*
X155131866Y-84530228D01*
X155108057Y-84482609D01*
X155108057Y-84411180D01*
X155131866Y-84363561D01*
X155155676Y-84339752D01*
X155203295Y-84315942D01*
X155346152Y-84315942D01*
X155393771Y-84339752D01*
X155417580Y-84363561D01*
X155441390Y-84411180D01*
X155441390Y-84482609D01*
X155441390Y-84030228D02*
X155417580Y-84077847D01*
X155369961Y-84101657D01*
X154941390Y-84101657D01*
%TO.C,J4*%
D12*
X142645980Y-101933333D02*
X143360266Y-101933333D01*
X143503123Y-101980952D01*
X143598361Y-102076190D01*
X143645980Y-102219047D01*
X143645980Y-102314285D01*
X142979314Y-101028571D02*
X143645980Y-101028571D01*
X142598361Y-101266666D02*
X143312647Y-101504761D01*
X143312647Y-100885714D01*
D11*
X155339790Y-103719047D02*
X154839790Y-103719047D01*
X154839790Y-103528571D01*
X154863600Y-103480952D01*
X154887409Y-103457142D01*
X154935028Y-103433333D01*
X155006457Y-103433333D01*
X155054076Y-103457142D01*
X155077885Y-103480952D01*
X155101695Y-103528571D01*
X155101695Y-103719047D01*
X154839790Y-103266666D02*
X155339790Y-103147619D01*
X154982647Y-103052380D01*
X155339790Y-102957142D01*
X154839790Y-102838095D01*
X155339790Y-102647619D02*
X154839790Y-102647619D01*
X155196933Y-102480952D01*
X154839790Y-102314285D01*
X155339790Y-102314285D01*
X154839790Y-101600000D02*
X154839790Y-101504761D01*
X154863600Y-101457142D01*
X154911219Y-101409523D01*
X155006457Y-101385714D01*
X155173123Y-101385714D01*
X155268361Y-101409523D01*
X155315980Y-101457142D01*
X155339790Y-101504761D01*
X155339790Y-101600000D01*
X155315980Y-101647619D01*
X155268361Y-101695238D01*
X155173123Y-101719047D01*
X155006457Y-101719047D01*
X154911219Y-101695238D01*
X154863600Y-101647619D01*
X154839790Y-101600000D01*
X155006457Y-100957142D02*
X155339790Y-100957142D01*
X155006457Y-101171428D02*
X155268361Y-101171428D01*
X155315980Y-101147619D01*
X155339790Y-101100000D01*
X155339790Y-101028571D01*
X155315980Y-100980952D01*
X155292171Y-100957142D01*
X155006457Y-100790476D02*
X155006457Y-100600000D01*
X154839790Y-100719047D02*
X155268361Y-100719047D01*
X155315980Y-100695238D01*
X155339790Y-100647619D01*
X155339790Y-100600000D01*
X155006457Y-100433333D02*
X155506457Y-100433333D01*
X155030266Y-100433333D02*
X155006457Y-100385714D01*
X155006457Y-100290476D01*
X155030266Y-100242857D01*
X155054076Y-100219047D01*
X155101695Y-100195238D01*
X155244552Y-100195238D01*
X155292171Y-100219047D01*
X155315980Y-100242857D01*
X155339790Y-100290476D01*
X155339790Y-100385714D01*
X155315980Y-100433333D01*
X155006457Y-99766666D02*
X155339790Y-99766666D01*
X155006457Y-99980952D02*
X155268361Y-99980952D01*
X155315980Y-99957142D01*
X155339790Y-99909523D01*
X155339790Y-99838095D01*
X155315980Y-99790476D01*
X155292171Y-99766666D01*
X155006457Y-99600000D02*
X155006457Y-99409523D01*
X154839790Y-99528571D02*
X155268361Y-99528571D01*
X155315980Y-99504761D01*
X155339790Y-99457142D01*
X155339790Y-99409523D01*
%TO.C,Q1*%
D12*
X139350761Y-88888819D02*
X139255523Y-88841200D01*
X139160285Y-88745961D01*
X139017428Y-88603104D01*
X138922190Y-88555485D01*
X138826952Y-88555485D01*
X138874571Y-88793580D02*
X138779333Y-88745961D01*
X138684095Y-88650723D01*
X138636476Y-88460247D01*
X138636476Y-88126914D01*
X138684095Y-87936438D01*
X138779333Y-87841200D01*
X138874571Y-87793580D01*
X139065047Y-87793580D01*
X139160285Y-87841200D01*
X139255523Y-87936438D01*
X139303142Y-88126914D01*
X139303142Y-88460247D01*
X139255523Y-88650723D01*
X139160285Y-88745961D01*
X139065047Y-88793580D01*
X138874571Y-88793580D01*
X140255523Y-88793580D02*
X139684095Y-88793580D01*
X139969809Y-88793580D02*
X139969809Y-87793580D01*
X139874571Y-87936438D01*
X139779333Y-88031676D01*
X139684095Y-88079295D01*
X136680914Y-94035619D02*
X136728533Y-93988000D01*
X136823771Y-93940380D01*
X137061866Y-93940380D01*
X137157104Y-93988000D01*
X137204723Y-94035619D01*
X137252342Y-94130857D01*
X137252342Y-94226095D01*
X137204723Y-94368952D01*
X136633295Y-94940380D01*
X137252342Y-94940380D01*
X137680914Y-94940380D02*
X137680914Y-93940380D01*
X138252342Y-94940380D01*
X138252342Y-93940380D01*
X138633295Y-93940380D02*
X139252342Y-93940380D01*
X138919009Y-94321333D01*
X139061866Y-94321333D01*
X139157104Y-94368952D01*
X139204723Y-94416571D01*
X139252342Y-94511809D01*
X139252342Y-94749904D01*
X139204723Y-94845142D01*
X139157104Y-94892761D01*
X139061866Y-94940380D01*
X138776152Y-94940380D01*
X138680914Y-94892761D01*
X138633295Y-94845142D01*
X139728533Y-94940380D02*
X139919009Y-94940380D01*
X140014247Y-94892761D01*
X140061866Y-94845142D01*
X140157104Y-94702285D01*
X140204723Y-94511809D01*
X140204723Y-94130857D01*
X140157104Y-94035619D01*
X140109485Y-93988000D01*
X140014247Y-93940380D01*
X139823771Y-93940380D01*
X139728533Y-93988000D01*
X139680914Y-94035619D01*
X139633295Y-94130857D01*
X139633295Y-94368952D01*
X139680914Y-94464190D01*
X139728533Y-94511809D01*
X139823771Y-94559428D01*
X140014247Y-94559428D01*
X140109485Y-94511809D01*
X140157104Y-94464190D01*
X140204723Y-94368952D01*
X140823771Y-93940380D02*
X140919009Y-93940380D01*
X141014247Y-93988000D01*
X141061866Y-94035619D01*
X141109485Y-94130857D01*
X141157104Y-94321333D01*
X141157104Y-94559428D01*
X141109485Y-94749904D01*
X141061866Y-94845142D01*
X141014247Y-94892761D01*
X140919009Y-94940380D01*
X140823771Y-94940380D01*
X140728533Y-94892761D01*
X140680914Y-94845142D01*
X140633295Y-94749904D01*
X140585676Y-94559428D01*
X140585676Y-94321333D01*
X140633295Y-94130857D01*
X140680914Y-94035619D01*
X140728533Y-93988000D01*
X140823771Y-93940380D01*
X142014247Y-93940380D02*
X141823771Y-93940380D01*
X141728533Y-93988000D01*
X141680914Y-94035619D01*
X141585676Y-94178476D01*
X141538057Y-94368952D01*
X141538057Y-94749904D01*
X141585676Y-94845142D01*
X141633295Y-94892761D01*
X141728533Y-94940380D01*
X141919009Y-94940380D01*
X142014247Y-94892761D01*
X142061866Y-94845142D01*
X142109485Y-94749904D01*
X142109485Y-94511809D01*
X142061866Y-94416571D01*
X142014247Y-94368952D01*
X141919009Y-94321333D01*
X141728533Y-94321333D01*
X141633295Y-94368952D01*
X141585676Y-94416571D01*
X141538057Y-94511809D01*
%TO.C,R2*%
X112364780Y-98159866D02*
X111888590Y-98493200D01*
X112364780Y-98731295D02*
X111364780Y-98731295D01*
X111364780Y-98350342D01*
X111412400Y-98255104D01*
X111460019Y-98207485D01*
X111555257Y-98159866D01*
X111698114Y-98159866D01*
X111793352Y-98207485D01*
X111840971Y-98255104D01*
X111888590Y-98350342D01*
X111888590Y-98731295D01*
X111460019Y-97778914D02*
X111412400Y-97731295D01*
X111364780Y-97636057D01*
X111364780Y-97397961D01*
X111412400Y-97302723D01*
X111460019Y-97255104D01*
X111555257Y-97207485D01*
X111650495Y-97207485D01*
X111793352Y-97255104D01*
X112364780Y-97826533D01*
X112364780Y-97207485D01*
X114041180Y-97839066D02*
X114041180Y-98410495D01*
X114041180Y-98124780D02*
X113041180Y-98124780D01*
X113184038Y-98220019D01*
X113279276Y-98315257D01*
X113326895Y-98410495D01*
X113041180Y-97220019D02*
X113041180Y-97124780D01*
X113088800Y-97029542D01*
X113136419Y-96981923D01*
X113231657Y-96934304D01*
X113422133Y-96886685D01*
X113660228Y-96886685D01*
X113850704Y-96934304D01*
X113945942Y-96981923D01*
X113993561Y-97029542D01*
X114041180Y-97124780D01*
X114041180Y-97220019D01*
X113993561Y-97315257D01*
X113945942Y-97362876D01*
X113850704Y-97410495D01*
X113660228Y-97458114D01*
X113422133Y-97458114D01*
X113231657Y-97410495D01*
X113136419Y-97362876D01*
X113088800Y-97315257D01*
X113041180Y-97220019D01*
X113041180Y-96267638D02*
X113041180Y-96172400D01*
X113088800Y-96077161D01*
X113136419Y-96029542D01*
X113231657Y-95981923D01*
X113422133Y-95934304D01*
X113660228Y-95934304D01*
X113850704Y-95981923D01*
X113945942Y-96029542D01*
X113993561Y-96077161D01*
X114041180Y-96172400D01*
X114041180Y-96267638D01*
X113993561Y-96362876D01*
X113945942Y-96410495D01*
X113850704Y-96458114D01*
X113660228Y-96505733D01*
X113422133Y-96505733D01*
X113231657Y-96458114D01*
X113136419Y-96410495D01*
X113088800Y-96362876D01*
X113041180Y-96267638D01*
X114041180Y-95505733D02*
X113041180Y-95505733D01*
X114041180Y-94934304D02*
X113469752Y-95362876D01*
X113041180Y-94934304D02*
X113612609Y-95505733D01*
%TO.C,R4*%
X124140933Y-92095580D02*
X123807600Y-91619390D01*
X123569504Y-92095580D02*
X123569504Y-91095580D01*
X123950457Y-91095580D01*
X124045695Y-91143200D01*
X124093314Y-91190819D01*
X124140933Y-91286057D01*
X124140933Y-91428914D01*
X124093314Y-91524152D01*
X124045695Y-91571771D01*
X123950457Y-91619390D01*
X123569504Y-91619390D01*
X124998076Y-91428914D02*
X124998076Y-92095580D01*
X124759980Y-91047961D02*
X124521885Y-91762247D01*
X125140933Y-91762247D01*
X124772895Y-92765619D02*
X124820514Y-92718000D01*
X124915752Y-92670380D01*
X125153847Y-92670380D01*
X125249085Y-92718000D01*
X125296704Y-92765619D01*
X125344323Y-92860857D01*
X125344323Y-92956095D01*
X125296704Y-93098952D01*
X124725276Y-93670380D01*
X125344323Y-93670380D01*
X125963371Y-92670380D02*
X126058609Y-92670380D01*
X126153847Y-92718000D01*
X126201466Y-92765619D01*
X126249085Y-92860857D01*
X126296704Y-93051333D01*
X126296704Y-93289428D01*
X126249085Y-93479904D01*
X126201466Y-93575142D01*
X126153847Y-93622761D01*
X126058609Y-93670380D01*
X125963371Y-93670380D01*
X125868133Y-93622761D01*
X125820514Y-93575142D01*
X125772895Y-93479904D01*
X125725276Y-93289428D01*
X125725276Y-93051333D01*
X125772895Y-92860857D01*
X125820514Y-92765619D01*
X125868133Y-92718000D01*
X125963371Y-92670380D01*
X126725276Y-93670380D02*
X126725276Y-92670380D01*
X127296704Y-93670380D02*
X126868133Y-93098952D01*
X127296704Y-92670380D02*
X126725276Y-93241809D01*
%TO.C,R5*%
X132379980Y-95111866D02*
X131903790Y-95445200D01*
X132379980Y-95683295D02*
X131379980Y-95683295D01*
X131379980Y-95302342D01*
X131427600Y-95207104D01*
X131475219Y-95159485D01*
X131570457Y-95111866D01*
X131713314Y-95111866D01*
X131808552Y-95159485D01*
X131856171Y-95207104D01*
X131903790Y-95302342D01*
X131903790Y-95683295D01*
X131379980Y-94207104D02*
X131379980Y-94683295D01*
X131856171Y-94730914D01*
X131808552Y-94683295D01*
X131760933Y-94588057D01*
X131760933Y-94349961D01*
X131808552Y-94254723D01*
X131856171Y-94207104D01*
X131951409Y-94159485D01*
X132189504Y-94159485D01*
X132284742Y-94207104D01*
X132332361Y-94254723D01*
X132379980Y-94349961D01*
X132379980Y-94588057D01*
X132332361Y-94683295D01*
X132284742Y-94730914D01*
X133050019Y-95124400D02*
X133002400Y-95076780D01*
X132954780Y-94981542D01*
X132954780Y-94743447D01*
X133002400Y-94648209D01*
X133050019Y-94600590D01*
X133145257Y-94552971D01*
X133240495Y-94552971D01*
X133383352Y-94600590D01*
X133954780Y-95172019D01*
X133954780Y-94552971D01*
X133859542Y-94124400D02*
X133907161Y-94076780D01*
X133954780Y-94124400D01*
X133907161Y-94172019D01*
X133859542Y-94124400D01*
X133954780Y-94124400D01*
X132954780Y-93743447D02*
X132954780Y-93076780D01*
X133954780Y-93505352D01*
X133954780Y-92695828D02*
X132954780Y-92695828D01*
X133954780Y-92124400D02*
X133383352Y-92552971D01*
X132954780Y-92124400D02*
X133526209Y-92695828D01*
%TO.C,R6*%
X135926533Y-83662780D02*
X135593200Y-83186590D01*
X135355104Y-83662780D02*
X135355104Y-82662780D01*
X135736057Y-82662780D01*
X135831295Y-82710400D01*
X135878914Y-82758019D01*
X135926533Y-82853257D01*
X135926533Y-82996114D01*
X135878914Y-83091352D01*
X135831295Y-83138971D01*
X135736057Y-83186590D01*
X135355104Y-83186590D01*
X136783676Y-82662780D02*
X136593200Y-82662780D01*
X136497961Y-82710400D01*
X136450342Y-82758019D01*
X136355104Y-82900876D01*
X136307485Y-83091352D01*
X136307485Y-83472304D01*
X136355104Y-83567542D01*
X136402723Y-83615161D01*
X136497961Y-83662780D01*
X136688438Y-83662780D01*
X136783676Y-83615161D01*
X136831295Y-83567542D01*
X136878914Y-83472304D01*
X136878914Y-83234209D01*
X136831295Y-83138971D01*
X136783676Y-83091352D01*
X136688438Y-83043733D01*
X136497961Y-83043733D01*
X136402723Y-83091352D01*
X136355104Y-83138971D01*
X136307485Y-83234209D01*
X136956895Y-84621714D02*
X136956895Y-85288380D01*
X136718800Y-84240761D02*
X136480704Y-84955047D01*
X137099752Y-84955047D01*
X137909276Y-84288380D02*
X137718800Y-84288380D01*
X137623561Y-84336000D01*
X137575942Y-84383619D01*
X137480704Y-84526476D01*
X137433085Y-84716952D01*
X137433085Y-85097904D01*
X137480704Y-85193142D01*
X137528323Y-85240761D01*
X137623561Y-85288380D01*
X137814038Y-85288380D01*
X137909276Y-85240761D01*
X137956895Y-85193142D01*
X138004514Y-85097904D01*
X138004514Y-84859809D01*
X137956895Y-84764571D01*
X137909276Y-84716952D01*
X137814038Y-84669333D01*
X137623561Y-84669333D01*
X137528323Y-84716952D01*
X137480704Y-84764571D01*
X137433085Y-84859809D01*
X138623561Y-84288380D02*
X138718800Y-84288380D01*
X138814038Y-84336000D01*
X138861657Y-84383619D01*
X138909276Y-84478857D01*
X138956895Y-84669333D01*
X138956895Y-84907428D01*
X138909276Y-85097904D01*
X138861657Y-85193142D01*
X138814038Y-85240761D01*
X138718800Y-85288380D01*
X138623561Y-85288380D01*
X138528323Y-85240761D01*
X138480704Y-85193142D01*
X138433085Y-85097904D01*
X138385466Y-84907428D01*
X138385466Y-84669333D01*
X138433085Y-84478857D01*
X138480704Y-84383619D01*
X138528323Y-84336000D01*
X138623561Y-84288380D01*
%TO.C,R7*%
X131871980Y-112333066D02*
X131395790Y-112666400D01*
X131871980Y-112904495D02*
X130871980Y-112904495D01*
X130871980Y-112523542D01*
X130919600Y-112428304D01*
X130967219Y-112380685D01*
X131062457Y-112333066D01*
X131205314Y-112333066D01*
X131300552Y-112380685D01*
X131348171Y-112428304D01*
X131395790Y-112523542D01*
X131395790Y-112904495D01*
X130871980Y-111999733D02*
X130871980Y-111333066D01*
X131871980Y-111761638D01*
X133548380Y-111180476D02*
X133548380Y-111751904D01*
X133548380Y-111466190D02*
X132548380Y-111466190D01*
X132691238Y-111561428D01*
X132786476Y-111656666D01*
X132834095Y-111751904D01*
X132548380Y-110561428D02*
X132548380Y-110466190D01*
X132596000Y-110370952D01*
X132643619Y-110323333D01*
X132738857Y-110275714D01*
X132929333Y-110228095D01*
X133167428Y-110228095D01*
X133357904Y-110275714D01*
X133453142Y-110323333D01*
X133500761Y-110370952D01*
X133548380Y-110466190D01*
X133548380Y-110561428D01*
X133500761Y-110656666D01*
X133453142Y-110704285D01*
X133357904Y-110751904D01*
X133167428Y-110799523D01*
X132929333Y-110799523D01*
X132738857Y-110751904D01*
X132643619Y-110704285D01*
X132596000Y-110656666D01*
X132548380Y-110561428D01*
X133548380Y-109799523D02*
X132548380Y-109799523D01*
X133548380Y-109228095D02*
X132976952Y-109656666D01*
X132548380Y-109228095D02*
X133119809Y-109799523D01*
%TO.C,R8*%
X124344133Y-96210380D02*
X124010800Y-95734190D01*
X123772704Y-96210380D02*
X123772704Y-95210380D01*
X124153657Y-95210380D01*
X124248895Y-95258000D01*
X124296514Y-95305619D01*
X124344133Y-95400857D01*
X124344133Y-95543714D01*
X124296514Y-95638952D01*
X124248895Y-95686571D01*
X124153657Y-95734190D01*
X123772704Y-95734190D01*
X124915561Y-95638952D02*
X124820323Y-95591333D01*
X124772704Y-95543714D01*
X124725085Y-95448476D01*
X124725085Y-95400857D01*
X124772704Y-95305619D01*
X124820323Y-95258000D01*
X124915561Y-95210380D01*
X125106038Y-95210380D01*
X125201276Y-95258000D01*
X125248895Y-95305619D01*
X125296514Y-95400857D01*
X125296514Y-95448476D01*
X125248895Y-95543714D01*
X125201276Y-95591333D01*
X125106038Y-95638952D01*
X124915561Y-95638952D01*
X124820323Y-95686571D01*
X124772704Y-95734190D01*
X124725085Y-95829428D01*
X124725085Y-96019904D01*
X124772704Y-96115142D01*
X124820323Y-96162761D01*
X124915561Y-96210380D01*
X125106038Y-96210380D01*
X125201276Y-96162761D01*
X125248895Y-96115142D01*
X125296514Y-96019904D01*
X125296514Y-95829428D01*
X125248895Y-95734190D01*
X125201276Y-95686571D01*
X125106038Y-95638952D01*
X124823695Y-96829619D02*
X124871314Y-96782000D01*
X124966552Y-96734380D01*
X125204647Y-96734380D01*
X125299885Y-96782000D01*
X125347504Y-96829619D01*
X125395123Y-96924857D01*
X125395123Y-97020095D01*
X125347504Y-97162952D01*
X124776076Y-97734380D01*
X125395123Y-97734380D01*
X125728457Y-96734380D02*
X126395123Y-96734380D01*
X125966552Y-97734380D01*
X126776076Y-97734380D02*
X126776076Y-96734380D01*
X127347504Y-97734380D02*
X126918933Y-97162952D01*
X127347504Y-96734380D02*
X126776076Y-97305809D01*
%TO.C,R10*%
X123817142Y-100325180D02*
X123483809Y-99848990D01*
X123245714Y-100325180D02*
X123245714Y-99325180D01*
X123626666Y-99325180D01*
X123721904Y-99372800D01*
X123769523Y-99420419D01*
X123817142Y-99515657D01*
X123817142Y-99658514D01*
X123769523Y-99753752D01*
X123721904Y-99801371D01*
X123626666Y-99848990D01*
X123245714Y-99848990D01*
X124769523Y-100325180D02*
X124198095Y-100325180D01*
X124483809Y-100325180D02*
X124483809Y-99325180D01*
X124388571Y-99468038D01*
X124293333Y-99563276D01*
X124198095Y-99610895D01*
X125388571Y-99325180D02*
X125483809Y-99325180D01*
X125579047Y-99372800D01*
X125626666Y-99420419D01*
X125674285Y-99515657D01*
X125721904Y-99706133D01*
X125721904Y-99944228D01*
X125674285Y-100134704D01*
X125626666Y-100229942D01*
X125579047Y-100277561D01*
X125483809Y-100325180D01*
X125388571Y-100325180D01*
X125293333Y-100277561D01*
X125245714Y-100229942D01*
X125198095Y-100134704D01*
X125150476Y-99944228D01*
X125150476Y-99706133D01*
X125198095Y-99515657D01*
X125245714Y-99420419D01*
X125293333Y-99372800D01*
X125388571Y-99325180D01*
X124512533Y-101798380D02*
X123941104Y-101798380D01*
X124226819Y-101798380D02*
X124226819Y-100798380D01*
X124131580Y-100941238D01*
X124036342Y-101036476D01*
X123941104Y-101084095D01*
X125131580Y-100798380D02*
X125226819Y-100798380D01*
X125322057Y-100846000D01*
X125369676Y-100893619D01*
X125417295Y-100988857D01*
X125464914Y-101179333D01*
X125464914Y-101417428D01*
X125417295Y-101607904D01*
X125369676Y-101703142D01*
X125322057Y-101750761D01*
X125226819Y-101798380D01*
X125131580Y-101798380D01*
X125036342Y-101750761D01*
X124988723Y-101703142D01*
X124941104Y-101607904D01*
X124893485Y-101417428D01*
X124893485Y-101179333D01*
X124941104Y-100988857D01*
X124988723Y-100893619D01*
X125036342Y-100846000D01*
X125131580Y-100798380D01*
X126083961Y-100798380D02*
X126179200Y-100798380D01*
X126274438Y-100846000D01*
X126322057Y-100893619D01*
X126369676Y-100988857D01*
X126417295Y-101179333D01*
X126417295Y-101417428D01*
X126369676Y-101607904D01*
X126322057Y-101703142D01*
X126274438Y-101750761D01*
X126179200Y-101798380D01*
X126083961Y-101798380D01*
X125988723Y-101750761D01*
X125941104Y-101703142D01*
X125893485Y-101607904D01*
X125845866Y-101417428D01*
X125845866Y-101179333D01*
X125893485Y-100988857D01*
X125941104Y-100893619D01*
X125988723Y-100846000D01*
X126083961Y-100798380D01*
X126845866Y-101798380D02*
X126845866Y-100798380D01*
X127417295Y-101798380D02*
X126988723Y-101226952D01*
X127417295Y-100798380D02*
X126845866Y-101369809D01*
%TO.C,U1*%
X117261180Y-88239504D02*
X118070704Y-88239504D01*
X118165942Y-88191885D01*
X118213561Y-88144266D01*
X118261180Y-88049028D01*
X118261180Y-87858552D01*
X118213561Y-87763314D01*
X118165942Y-87715695D01*
X118070704Y-87668076D01*
X117261180Y-87668076D01*
X118261180Y-86668076D02*
X118261180Y-87239504D01*
X118261180Y-86953790D02*
X117261180Y-86953790D01*
X117404038Y-87049028D01*
X117499276Y-87144266D01*
X117546895Y-87239504D01*
X119823123Y-88742780D02*
X119346933Y-88742780D01*
X119346933Y-87742780D01*
X120156457Y-88742780D02*
X120156457Y-87742780D01*
X120489790Y-88457066D01*
X120823123Y-87742780D01*
X120823123Y-88742780D01*
X121204076Y-87742780D02*
X121823123Y-87742780D01*
X121489790Y-88123733D01*
X121632647Y-88123733D01*
X121727885Y-88171352D01*
X121775504Y-88218971D01*
X121823123Y-88314209D01*
X121823123Y-88552304D01*
X121775504Y-88647542D01*
X121727885Y-88695161D01*
X121632647Y-88742780D01*
X121346933Y-88742780D01*
X121251695Y-88695161D01*
X121204076Y-88647542D01*
X122299314Y-88742780D02*
X122489790Y-88742780D01*
X122585028Y-88695161D01*
X122632647Y-88647542D01*
X122727885Y-88504685D01*
X122775504Y-88314209D01*
X122775504Y-87933257D01*
X122727885Y-87838019D01*
X122680266Y-87790400D01*
X122585028Y-87742780D01*
X122394552Y-87742780D01*
X122299314Y-87790400D01*
X122251695Y-87838019D01*
X122204076Y-87933257D01*
X122204076Y-88171352D01*
X122251695Y-88266590D01*
X122299314Y-88314209D01*
X122394552Y-88361828D01*
X122585028Y-88361828D01*
X122680266Y-88314209D01*
X122727885Y-88266590D01*
X122775504Y-88171352D01*
X123108838Y-87742780D02*
X123727885Y-87742780D01*
X123394552Y-88123733D01*
X123537409Y-88123733D01*
X123632647Y-88171352D01*
X123680266Y-88218971D01*
X123727885Y-88314209D01*
X123727885Y-88552304D01*
X123680266Y-88647542D01*
X123632647Y-88695161D01*
X123537409Y-88742780D01*
X123251695Y-88742780D01*
X123156457Y-88695161D01*
X123108838Y-88647542D01*
%TO.C,U2*%
X120751695Y-115327180D02*
X120751695Y-116136704D01*
X120799314Y-116231942D01*
X120846933Y-116279561D01*
X120942171Y-116327180D01*
X121132647Y-116327180D01*
X121227885Y-116279561D01*
X121275504Y-116231942D01*
X121323123Y-116136704D01*
X121323123Y-115327180D01*
X121751695Y-115422419D02*
X121799314Y-115374800D01*
X121894552Y-115327180D01*
X122132647Y-115327180D01*
X122227885Y-115374800D01*
X122275504Y-115422419D01*
X122323123Y-115517657D01*
X122323123Y-115612895D01*
X122275504Y-115755752D01*
X121704076Y-116327180D01*
X122323123Y-116327180D01*
X121667542Y-113778990D02*
X121715161Y-113826609D01*
X121762780Y-113969466D01*
X121762780Y-114064704D01*
X121715161Y-114207561D01*
X121619923Y-114302800D01*
X121524685Y-114350419D01*
X121334209Y-114398038D01*
X121191352Y-114398038D01*
X121000876Y-114350419D01*
X120905638Y-114302800D01*
X120810400Y-114207561D01*
X120762780Y-114064704D01*
X120762780Y-113969466D01*
X120810400Y-113826609D01*
X120858019Y-113778990D01*
X121477066Y-113398038D02*
X121477066Y-112921847D01*
X121762780Y-113493276D02*
X120762780Y-113159942D01*
X121762780Y-112826609D01*
X120762780Y-112588514D02*
X120762780Y-111969466D01*
X121143733Y-112302800D01*
X121143733Y-112159942D01*
X121191352Y-112064704D01*
X121238971Y-112017085D01*
X121334209Y-111969466D01*
X121572304Y-111969466D01*
X121667542Y-112017085D01*
X121715161Y-112064704D01*
X121762780Y-112159942D01*
X121762780Y-112445657D01*
X121715161Y-112540895D01*
X121667542Y-112588514D01*
X120858019Y-111588514D02*
X120810400Y-111540895D01*
X120762780Y-111445657D01*
X120762780Y-111207561D01*
X120810400Y-111112323D01*
X120858019Y-111064704D01*
X120953257Y-111017085D01*
X121048495Y-111017085D01*
X121191352Y-111064704D01*
X121762780Y-111636133D01*
X121762780Y-111017085D01*
X121096114Y-110159942D02*
X121762780Y-110159942D01*
X120715161Y-110398038D02*
X121429447Y-110636133D01*
X121429447Y-110017085D01*
X120762780Y-109445657D02*
X120762780Y-109350419D01*
X120810400Y-109255180D01*
X120858019Y-109207561D01*
X120953257Y-109159942D01*
X121143733Y-109112323D01*
X121381828Y-109112323D01*
X121572304Y-109159942D01*
X121667542Y-109207561D01*
X121715161Y-109255180D01*
X121762780Y-109350419D01*
X121762780Y-109445657D01*
X121715161Y-109540895D01*
X121667542Y-109588514D01*
X121572304Y-109636133D01*
X121381828Y-109683752D01*
X121143733Y-109683752D01*
X120953257Y-109636133D01*
X120858019Y-109588514D01*
X120810400Y-109540895D01*
X120762780Y-109445657D01*
X121238971Y-108683752D02*
X121238971Y-108350419D01*
X121762780Y-108207561D02*
X121762780Y-108683752D01*
X120762780Y-108683752D01*
X120762780Y-108207561D01*
%TO.C,U3*%
X144678495Y-118730780D02*
X144678495Y-119540304D01*
X144726114Y-119635542D01*
X144773733Y-119683161D01*
X144868971Y-119730780D01*
X145059447Y-119730780D01*
X145154685Y-119683161D01*
X145202304Y-119635542D01*
X145249923Y-119540304D01*
X145249923Y-118730780D01*
X145630876Y-118730780D02*
X146249923Y-118730780D01*
X145916590Y-119111733D01*
X146059447Y-119111733D01*
X146154685Y-119159352D01*
X146202304Y-119206971D01*
X146249923Y-119302209D01*
X146249923Y-119540304D01*
X146202304Y-119635542D01*
X146154685Y-119683161D01*
X146059447Y-119730780D01*
X145773733Y-119730780D01*
X145678495Y-119683161D01*
X145630876Y-119635542D01*
X145883523Y-113990380D02*
X145407333Y-113990380D01*
X145407333Y-112990380D01*
X146216857Y-113990380D02*
X146216857Y-112990380D01*
X146550190Y-113704666D01*
X146883523Y-112990380D01*
X146883523Y-113990380D01*
X147264476Y-112990380D02*
X147883523Y-112990380D01*
X147550190Y-113371333D01*
X147693047Y-113371333D01*
X147788285Y-113418952D01*
X147835904Y-113466571D01*
X147883523Y-113561809D01*
X147883523Y-113799904D01*
X147835904Y-113895142D01*
X147788285Y-113942761D01*
X147693047Y-113990380D01*
X147407333Y-113990380D01*
X147312095Y-113942761D01*
X147264476Y-113895142D01*
X148835904Y-113990380D02*
X148264476Y-113990380D01*
X148550190Y-113990380D02*
X148550190Y-112990380D01*
X148454952Y-113133238D01*
X148359714Y-113228476D01*
X148264476Y-113276095D01*
X149788285Y-113990380D02*
X149216857Y-113990380D01*
X149502571Y-113990380D02*
X149502571Y-112990380D01*
X149407333Y-113133238D01*
X149312095Y-113228476D01*
X149216857Y-113276095D01*
%TD*%
M02*
