%TF.GenerationSoftware,KiCad,Pcbnew,5.1.10-88a1d61d58~90~ubuntu20.04.1*%
%TF.CreationDate,2021-07-18T14:42:11-04:00*%
%TF.ProjectId,VoltageControlledPWM,566f6c74-6167-4654-936f-6e74726f6c6c,V1.0*%
%TF.SameCoordinates,Original*%
%TF.FileFunction,Legend,Top*%
%TF.FilePolarity,Positive*%
%FSLAX46Y46*%
G04 Gerber Fmt 4.6, Leading zero omitted, Abs format (unit mm)*
G04 Created by KiCad (PCBNEW 5.1.10-88a1d61d58~90~ubuntu20.04.1) date 2021-07-18 14:42:11*
%MOMM*%
%LPD*%
G01*
G04 APERTURE LIST*
%ADD10C,0.120000*%
%ADD11C,0.150000*%
%ADD12C,0.100000*%
G04 APERTURE END LIST*
D10*
%TO.C,R11*%
X105928000Y-118219800D02*
X105928000Y-108449800D01*
X110998000Y-118219800D02*
X110998000Y-108449800D01*
X105928000Y-118219800D02*
X110998000Y-118219800D01*
X105928000Y-108449800D02*
X110998000Y-108449800D01*
%TO.C,R9*%
X137017600Y-106434200D02*
X137017600Y-96664200D01*
X142087600Y-106434200D02*
X142087600Y-96664200D01*
X137017600Y-106434200D02*
X142087600Y-106434200D01*
X137017600Y-96664200D02*
X142087600Y-96664200D01*
%TO.C,R3*%
X105928000Y-105977000D02*
X105928000Y-96207000D01*
X110998000Y-105977000D02*
X110998000Y-96207000D01*
X105928000Y-105977000D02*
X110998000Y-105977000D01*
X105928000Y-96207000D02*
X110998000Y-96207000D01*
%TO.C,R1*%
X105978800Y-93785000D02*
X105978800Y-84015000D01*
X111048800Y-93785000D02*
X111048800Y-84015000D01*
X105978800Y-93785000D02*
X111048800Y-93785000D01*
X105978800Y-84015000D02*
X111048800Y-84015000D01*
%TO.C,C1*%
X113041800Y-110837200D02*
X112726800Y-110837200D01*
X115466800Y-110837200D02*
X115151800Y-110837200D01*
X113041800Y-105897200D02*
X112726800Y-105897200D01*
X115466800Y-105897200D02*
X115151800Y-105897200D01*
X112726800Y-105897200D02*
X112726800Y-110837200D01*
X115466800Y-105897200D02*
X115466800Y-110837200D01*
%TO.C,C2*%
X114362600Y-89806000D02*
X114047600Y-89806000D01*
X116787600Y-89806000D02*
X116472600Y-89806000D01*
X114362600Y-84866000D02*
X114047600Y-84866000D01*
X116787600Y-84866000D02*
X116472600Y-84866000D01*
X114047600Y-84866000D02*
X114047600Y-89806000D01*
X116787600Y-84866000D02*
X116787600Y-89806000D01*
%TO.C,C4*%
X130402000Y-106252800D02*
X130402000Y-111192800D01*
X127662000Y-106252800D02*
X127662000Y-111192800D01*
X130402000Y-106252800D02*
X130087000Y-106252800D01*
X127977000Y-106252800D02*
X127662000Y-106252800D01*
X130402000Y-111192800D02*
X130087000Y-111192800D01*
X127977000Y-111192800D02*
X127662000Y-111192800D01*
%TO.C,C6*%
X136409800Y-114596400D02*
X136094800Y-114596400D01*
X138834800Y-114596400D02*
X138519800Y-114596400D01*
X136409800Y-109656400D02*
X136094800Y-109656400D01*
X138834800Y-109656400D02*
X138519800Y-109656400D01*
X136094800Y-109656400D02*
X136094800Y-114596400D01*
X138834800Y-109656400D02*
X138834800Y-114596400D01*
%TO.C,C3*%
X125579200Y-89835200D02*
X125579200Y-84895200D01*
X128319200Y-89835200D02*
X128319200Y-84895200D01*
X125579200Y-89835200D02*
X125894200Y-89835200D01*
X128004200Y-89835200D02*
X128319200Y-89835200D01*
X125579200Y-84895200D02*
X125894200Y-84895200D01*
X128004200Y-84895200D02*
X128319200Y-84895200D01*
%TO.C,C5*%
X118486400Y-118210000D02*
X113546400Y-118210000D01*
X118486400Y-115470000D02*
X113546400Y-115470000D01*
X118486400Y-118210000D02*
X118486400Y-117895000D01*
X118486400Y-115785000D02*
X118486400Y-115470000D01*
X113546400Y-118210000D02*
X113546400Y-117895000D01*
X113546400Y-115785000D02*
X113546400Y-115470000D01*
%TO.C,C7*%
X153963000Y-112276400D02*
X154278000Y-112276400D01*
X151538000Y-112276400D02*
X151853000Y-112276400D01*
X153963000Y-117216400D02*
X154278000Y-117216400D01*
X151538000Y-117216400D02*
X151853000Y-117216400D01*
X154278000Y-117216400D02*
X154278000Y-112276400D01*
X151538000Y-117216400D02*
X151538000Y-112276400D01*
%TO.C,J1*%
X93956800Y-84028000D02*
X93956800Y-84528000D01*
X94696800Y-84028000D02*
X93956800Y-84028000D01*
X97833800Y-95801000D02*
X97787800Y-95754000D01*
X100131800Y-98098000D02*
X100095800Y-98063000D01*
X97617800Y-95994000D02*
X97582800Y-95959000D01*
X99925800Y-98303000D02*
X99879800Y-98256000D01*
X97833800Y-90721000D02*
X97787800Y-90674000D01*
X100131800Y-93018000D02*
X100095800Y-92983000D01*
X97617800Y-90914000D02*
X97582800Y-90879000D01*
X99925800Y-93223000D02*
X99879800Y-93176000D01*
X104117800Y-99628000D02*
X94196800Y-99628000D01*
X104117800Y-84268000D02*
X94196800Y-84268000D01*
X94196800Y-84268000D02*
X94196800Y-99628000D01*
X104117800Y-84268000D02*
X104117800Y-99628000D01*
X101157800Y-84268000D02*
X101157800Y-99628000D01*
X96256800Y-84268000D02*
X96256800Y-99628000D01*
X94756800Y-84268000D02*
X94756800Y-99628000D01*
X100536800Y-97028000D02*
G75*
G03*
X100536800Y-97028000I-1680000J0D01*
G01*
X100536800Y-91948000D02*
G75*
G03*
X100536800Y-91948000I-1680000J0D01*
G01*
X97322044Y-87551318D02*
G75*
G02*
X97176800Y-86868000I1534756J683318D01*
G01*
X99539842Y-88403426D02*
G75*
G02*
X98172800Y-88403000I-683042J1535426D01*
G01*
X100392226Y-86184958D02*
G75*
G02*
X100391800Y-87552000I-1535426J-683042D01*
G01*
X98173758Y-85332574D02*
G75*
G02*
X99540800Y-85333000I683042J-1535426D01*
G01*
X97176547Y-86896805D02*
G75*
G02*
X97321800Y-86184000I1680253J28805D01*
G01*
%TO.C,J2*%
X93956800Y-107497600D02*
X93956800Y-107997600D01*
X94696800Y-107497600D02*
X93956800Y-107497600D01*
X97833800Y-114190600D02*
X97787800Y-114143600D01*
X100131800Y-116487600D02*
X100095800Y-116452600D01*
X97617800Y-114383600D02*
X97582800Y-114348600D01*
X99925800Y-116692600D02*
X99879800Y-116645600D01*
X104117800Y-118017600D02*
X94196800Y-118017600D01*
X104117800Y-107737600D02*
X94196800Y-107737600D01*
X94196800Y-107737600D02*
X94196800Y-118017600D01*
X104117800Y-107737600D02*
X104117800Y-118017600D01*
X101157800Y-107737600D02*
X101157800Y-118017600D01*
X96256800Y-107737600D02*
X96256800Y-118017600D01*
X94756800Y-107737600D02*
X94756800Y-118017600D01*
X100536800Y-115417600D02*
G75*
G03*
X100536800Y-115417600I-1680000J0D01*
G01*
X97322044Y-111020918D02*
G75*
G02*
X97176800Y-110337600I1534756J683318D01*
G01*
X99539842Y-111873026D02*
G75*
G02*
X98172800Y-111872600I-683042J1535426D01*
G01*
X100392226Y-109654558D02*
G75*
G02*
X100391800Y-111021600I-1535426J-683042D01*
G01*
X98173758Y-108802174D02*
G75*
G02*
X99540800Y-108802600I683042J-1535426D01*
G01*
X97176547Y-110366405D02*
G75*
G02*
X97321800Y-109653600I1680253J28805D01*
G01*
%TO.C,J3*%
X151235453Y-91969995D02*
G75*
G02*
X151090200Y-92682800I-1680253J-28805D01*
G01*
X150238242Y-93534226D02*
G75*
G02*
X148871200Y-93533800I-683042J1535426D01*
G01*
X148019774Y-92681842D02*
G75*
G02*
X148020200Y-91314800I1535426J683042D01*
G01*
X148872158Y-90463374D02*
G75*
G02*
X150239200Y-90463800I683042J-1535426D01*
G01*
X151089956Y-91315482D02*
G75*
G02*
X151235200Y-91998800I-1534756J-683318D01*
G01*
X151235200Y-86918800D02*
G75*
G03*
X151235200Y-86918800I-1680000J0D01*
G01*
X153655200Y-94598800D02*
X153655200Y-84318800D01*
X152155200Y-94598800D02*
X152155200Y-84318800D01*
X147254200Y-94598800D02*
X147254200Y-84318800D01*
X144294200Y-94598800D02*
X144294200Y-84318800D01*
X154215200Y-94598800D02*
X154215200Y-84318800D01*
X144294200Y-94598800D02*
X154215200Y-94598800D01*
X144294200Y-84318800D02*
X154215200Y-84318800D01*
X148486200Y-85643800D02*
X148532200Y-85690800D01*
X150794200Y-87952800D02*
X150829200Y-87987800D01*
X148280200Y-85848800D02*
X148316200Y-85883800D01*
X150578200Y-88145800D02*
X150624200Y-88192800D01*
X153715200Y-94838800D02*
X154455200Y-94838800D01*
X154455200Y-94838800D02*
X154455200Y-94338800D01*
%TO.C,J4*%
X154353600Y-106980000D02*
X154353600Y-106480000D01*
X153613600Y-106980000D02*
X154353600Y-106980000D01*
X150476600Y-100287000D02*
X150522600Y-100334000D01*
X148178600Y-97990000D02*
X148214600Y-98025000D01*
X150692600Y-100094000D02*
X150727600Y-100129000D01*
X148384600Y-97785000D02*
X148430600Y-97832000D01*
X144192600Y-96460000D02*
X154113600Y-96460000D01*
X144192600Y-106740000D02*
X154113600Y-106740000D01*
X154113600Y-106740000D02*
X154113600Y-96460000D01*
X144192600Y-106740000D02*
X144192600Y-96460000D01*
X147152600Y-106740000D02*
X147152600Y-96460000D01*
X152053600Y-106740000D02*
X152053600Y-96460000D01*
X153553600Y-106740000D02*
X153553600Y-96460000D01*
X151133600Y-99060000D02*
G75*
G03*
X151133600Y-99060000I-1680000J0D01*
G01*
X150988356Y-103456682D02*
G75*
G02*
X151133600Y-104140000I-1534756J-683318D01*
G01*
X148770558Y-102604574D02*
G75*
G02*
X150137600Y-102605000I683042J-1535426D01*
G01*
X147918174Y-104823042D02*
G75*
G02*
X147918600Y-103456000I1535426J683042D01*
G01*
X150136642Y-105675426D02*
G75*
G02*
X148769600Y-105675000I-683042J1535426D01*
G01*
X151133853Y-104111195D02*
G75*
G02*
X150988600Y-104824000I-1680253J-28805D01*
G01*
%TO.C,Q1*%
X137646000Y-93594800D02*
X141246000Y-93594800D01*
X137607522Y-93583278D02*
G75*
G02*
X139446000Y-89144800I1838478J1838478D01*
G01*
X141284478Y-93583278D02*
G75*
G03*
X139446000Y-89144800I-1838478J1838478D01*
G01*
%TO.C,R2*%
X114096800Y-93800800D02*
X114096800Y-94570800D01*
X114096800Y-101880800D02*
X114096800Y-101110800D01*
X112726800Y-94570800D02*
X112726800Y-101110800D01*
X115466800Y-94570800D02*
X112726800Y-94570800D01*
X115466800Y-101110800D02*
X115466800Y-94570800D01*
X112726800Y-101110800D02*
X115466800Y-101110800D01*
%TO.C,R4*%
X120369200Y-93675200D02*
X121139200Y-93675200D01*
X128449200Y-93675200D02*
X127679200Y-93675200D01*
X121139200Y-95045200D02*
X127679200Y-95045200D01*
X121139200Y-92305200D02*
X121139200Y-95045200D01*
X127679200Y-92305200D02*
X121139200Y-92305200D01*
X127679200Y-95045200D02*
X127679200Y-92305200D01*
%TO.C,R5*%
X132691200Y-98316800D02*
X135431200Y-98316800D01*
X135431200Y-98316800D02*
X135431200Y-91776800D01*
X135431200Y-91776800D02*
X132691200Y-91776800D01*
X132691200Y-91776800D02*
X132691200Y-98316800D01*
X134061200Y-99086800D02*
X134061200Y-98316800D01*
X134061200Y-91006800D02*
X134061200Y-91776800D01*
%TO.C,R6*%
X132002400Y-85293200D02*
X132772400Y-85293200D01*
X140082400Y-85293200D02*
X139312400Y-85293200D01*
X132772400Y-86663200D02*
X139312400Y-86663200D01*
X132772400Y-83923200D02*
X132772400Y-86663200D01*
X139312400Y-83923200D02*
X132772400Y-83923200D01*
X139312400Y-86663200D02*
X139312400Y-83923200D01*
%TO.C,R7*%
X133553200Y-108126400D02*
X133553200Y-108896400D01*
X133553200Y-116206400D02*
X133553200Y-115436400D01*
X132183200Y-108896400D02*
X132183200Y-115436400D01*
X134923200Y-108896400D02*
X132183200Y-108896400D01*
X134923200Y-115436400D02*
X134923200Y-108896400D01*
X132183200Y-115436400D02*
X134923200Y-115436400D01*
%TO.C,R8*%
X127628400Y-99109200D02*
X127628400Y-96369200D01*
X127628400Y-96369200D02*
X121088400Y-96369200D01*
X121088400Y-96369200D02*
X121088400Y-99109200D01*
X121088400Y-99109200D02*
X127628400Y-99109200D01*
X128398400Y-97739200D02*
X127628400Y-97739200D01*
X120318400Y-97739200D02*
X121088400Y-97739200D01*
%TO.C,R10*%
X127730000Y-103173200D02*
X127730000Y-100433200D01*
X127730000Y-100433200D02*
X121190000Y-100433200D01*
X121190000Y-100433200D02*
X121190000Y-103173200D01*
X121190000Y-103173200D02*
X127730000Y-103173200D01*
X128500000Y-101803200D02*
X127730000Y-101803200D01*
X120420000Y-101803200D02*
X121190000Y-101803200D01*
%TO.C,U1*%
X118648800Y-87477600D02*
X118648800Y-90927600D01*
X118648800Y-87477600D02*
X118648800Y-85527600D01*
X123768800Y-87477600D02*
X123768800Y-89427600D01*
X123768800Y-87477600D02*
X123768800Y-85527600D01*
%TO.C,U2*%
X122361200Y-104486400D02*
G75*
G02*
X120361200Y-104486400I-1000000J0D01*
G01*
X120361200Y-104486400D02*
X118711200Y-104486400D01*
X118711200Y-104486400D02*
X118711200Y-114766400D01*
X118711200Y-114766400D02*
X124011200Y-114766400D01*
X124011200Y-114766400D02*
X124011200Y-104486400D01*
X124011200Y-104486400D02*
X122361200Y-104486400D01*
%TO.C,U3*%
X140148000Y-110786400D02*
X140148000Y-112436400D01*
X150428000Y-110786400D02*
X140148000Y-110786400D01*
X150428000Y-116086400D02*
X150428000Y-110786400D01*
X140148000Y-116086400D02*
X150428000Y-116086400D01*
X140148000Y-114436400D02*
X140148000Y-116086400D01*
X140148000Y-112436400D02*
G75*
G02*
X140148000Y-114436400I0J-1000000D01*
G01*
%TO.C,R11*%
D11*
X105557580Y-113977657D02*
X105081390Y-114310990D01*
X105557580Y-114549085D02*
X104557580Y-114549085D01*
X104557580Y-114168133D01*
X104605200Y-114072895D01*
X104652819Y-114025276D01*
X104748057Y-113977657D01*
X104890914Y-113977657D01*
X104986152Y-114025276D01*
X105033771Y-114072895D01*
X105081390Y-114168133D01*
X105081390Y-114549085D01*
X105557580Y-113025276D02*
X105557580Y-113596704D01*
X105557580Y-113310990D02*
X104557580Y-113310990D01*
X104700438Y-113406228D01*
X104795676Y-113501466D01*
X104843295Y-113596704D01*
X105557580Y-112072895D02*
X105557580Y-112644323D01*
X105557580Y-112358609D02*
X104557580Y-112358609D01*
X104700438Y-112453847D01*
X104795676Y-112549085D01*
X104843295Y-112644323D01*
%TO.C,R9*%
X136339980Y-101715866D02*
X135863790Y-102049200D01*
X136339980Y-102287295D02*
X135339980Y-102287295D01*
X135339980Y-101906342D01*
X135387600Y-101811104D01*
X135435219Y-101763485D01*
X135530457Y-101715866D01*
X135673314Y-101715866D01*
X135768552Y-101763485D01*
X135816171Y-101811104D01*
X135863790Y-101906342D01*
X135863790Y-102287295D01*
X136339980Y-101239676D02*
X136339980Y-101049200D01*
X136292361Y-100953961D01*
X136244742Y-100906342D01*
X136101885Y-100811104D01*
X135911409Y-100763485D01*
X135530457Y-100763485D01*
X135435219Y-100811104D01*
X135387600Y-100858723D01*
X135339980Y-100953961D01*
X135339980Y-101144438D01*
X135387600Y-101239676D01*
X135435219Y-101287295D01*
X135530457Y-101334914D01*
X135768552Y-101334914D01*
X135863790Y-101287295D01*
X135911409Y-101239676D01*
X135959028Y-101144438D01*
X135959028Y-100953961D01*
X135911409Y-100858723D01*
X135863790Y-100811104D01*
X135768552Y-100763485D01*
%TO.C,R3*%
X105506780Y-101309466D02*
X105030590Y-101642800D01*
X105506780Y-101880895D02*
X104506780Y-101880895D01*
X104506780Y-101499942D01*
X104554400Y-101404704D01*
X104602019Y-101357085D01*
X104697257Y-101309466D01*
X104840114Y-101309466D01*
X104935352Y-101357085D01*
X104982971Y-101404704D01*
X105030590Y-101499942D01*
X105030590Y-101880895D01*
X104506780Y-100976133D02*
X104506780Y-100357085D01*
X104887733Y-100690419D01*
X104887733Y-100547561D01*
X104935352Y-100452323D01*
X104982971Y-100404704D01*
X105078209Y-100357085D01*
X105316304Y-100357085D01*
X105411542Y-100404704D01*
X105459161Y-100452323D01*
X105506780Y-100547561D01*
X105506780Y-100833276D01*
X105459161Y-100928514D01*
X105411542Y-100976133D01*
%TO.C,R1*%
X105557580Y-88965066D02*
X105081390Y-89298400D01*
X105557580Y-89536495D02*
X104557580Y-89536495D01*
X104557580Y-89155542D01*
X104605200Y-89060304D01*
X104652819Y-89012685D01*
X104748057Y-88965066D01*
X104890914Y-88965066D01*
X104986152Y-89012685D01*
X105033771Y-89060304D01*
X105081390Y-89155542D01*
X105081390Y-89536495D01*
X105557580Y-88012685D02*
X105557580Y-88584114D01*
X105557580Y-88298400D02*
X104557580Y-88298400D01*
X104700438Y-88393638D01*
X104795676Y-88488876D01*
X104843295Y-88584114D01*
%TO.C,C1*%
X116536742Y-108533866D02*
X116584361Y-108581485D01*
X116631980Y-108724342D01*
X116631980Y-108819580D01*
X116584361Y-108962438D01*
X116489123Y-109057676D01*
X116393885Y-109105295D01*
X116203409Y-109152914D01*
X116060552Y-109152914D01*
X115870076Y-109105295D01*
X115774838Y-109057676D01*
X115679600Y-108962438D01*
X115631980Y-108819580D01*
X115631980Y-108724342D01*
X115679600Y-108581485D01*
X115727219Y-108533866D01*
X116631980Y-107581485D02*
X116631980Y-108152914D01*
X116631980Y-107867200D02*
X115631980Y-107867200D01*
X115774838Y-107962438D01*
X115870076Y-108057676D01*
X115917695Y-108152914D01*
%TO.C,C2*%
X113641142Y-87796666D02*
X113688761Y-87844285D01*
X113736380Y-87987142D01*
X113736380Y-88082380D01*
X113688761Y-88225238D01*
X113593523Y-88320476D01*
X113498285Y-88368095D01*
X113307809Y-88415714D01*
X113164952Y-88415714D01*
X112974476Y-88368095D01*
X112879238Y-88320476D01*
X112784000Y-88225238D01*
X112736380Y-88082380D01*
X112736380Y-87987142D01*
X112784000Y-87844285D01*
X112831619Y-87796666D01*
X112831619Y-87415714D02*
X112784000Y-87368095D01*
X112736380Y-87272857D01*
X112736380Y-87034761D01*
X112784000Y-86939523D01*
X112831619Y-86891904D01*
X112926857Y-86844285D01*
X113022095Y-86844285D01*
X113164952Y-86891904D01*
X113736380Y-87463333D01*
X113736380Y-86844285D01*
%TO.C,C4*%
X131624342Y-108675466D02*
X131671961Y-108723085D01*
X131719580Y-108865942D01*
X131719580Y-108961180D01*
X131671961Y-109104038D01*
X131576723Y-109199276D01*
X131481485Y-109246895D01*
X131291009Y-109294514D01*
X131148152Y-109294514D01*
X130957676Y-109246895D01*
X130862438Y-109199276D01*
X130767200Y-109104038D01*
X130719580Y-108961180D01*
X130719580Y-108865942D01*
X130767200Y-108723085D01*
X130814819Y-108675466D01*
X131052914Y-107818323D02*
X131719580Y-107818323D01*
X130671961Y-108056419D02*
X131386247Y-108294514D01*
X131386247Y-107675466D01*
%TO.C,C6*%
X139955542Y-112383866D02*
X140003161Y-112431485D01*
X140050780Y-112574342D01*
X140050780Y-112669580D01*
X140003161Y-112812438D01*
X139907923Y-112907676D01*
X139812685Y-112955295D01*
X139622209Y-113002914D01*
X139479352Y-113002914D01*
X139288876Y-112955295D01*
X139193638Y-112907676D01*
X139098400Y-112812438D01*
X139050780Y-112669580D01*
X139050780Y-112574342D01*
X139098400Y-112431485D01*
X139146019Y-112383866D01*
X139050780Y-111526723D02*
X139050780Y-111717200D01*
X139098400Y-111812438D01*
X139146019Y-111860057D01*
X139288876Y-111955295D01*
X139479352Y-112002914D01*
X139860304Y-112002914D01*
X139955542Y-111955295D01*
X140003161Y-111907676D01*
X140050780Y-111812438D01*
X140050780Y-111621961D01*
X140003161Y-111526723D01*
X139955542Y-111479104D01*
X139860304Y-111431485D01*
X139622209Y-111431485D01*
X139526971Y-111479104D01*
X139479352Y-111526723D01*
X139431733Y-111621961D01*
X139431733Y-111812438D01*
X139479352Y-111907676D01*
X139526971Y-111955295D01*
X139622209Y-112002914D01*
%TO.C,C3*%
X125172742Y-87531866D02*
X125220361Y-87579485D01*
X125267980Y-87722342D01*
X125267980Y-87817580D01*
X125220361Y-87960438D01*
X125125123Y-88055676D01*
X125029885Y-88103295D01*
X124839409Y-88150914D01*
X124696552Y-88150914D01*
X124506076Y-88103295D01*
X124410838Y-88055676D01*
X124315600Y-87960438D01*
X124267980Y-87817580D01*
X124267980Y-87722342D01*
X124315600Y-87579485D01*
X124363219Y-87531866D01*
X124267980Y-87198533D02*
X124267980Y-86579485D01*
X124648933Y-86912819D01*
X124648933Y-86769961D01*
X124696552Y-86674723D01*
X124744171Y-86627104D01*
X124839409Y-86579485D01*
X125077504Y-86579485D01*
X125172742Y-86627104D01*
X125220361Y-86674723D01*
X125267980Y-86769961D01*
X125267980Y-87055676D01*
X125220361Y-87150914D01*
X125172742Y-87198533D01*
%TO.C,C5*%
X115849733Y-119330742D02*
X115802114Y-119378361D01*
X115659257Y-119425980D01*
X115564019Y-119425980D01*
X115421161Y-119378361D01*
X115325923Y-119283123D01*
X115278304Y-119187885D01*
X115230685Y-118997409D01*
X115230685Y-118854552D01*
X115278304Y-118664076D01*
X115325923Y-118568838D01*
X115421161Y-118473600D01*
X115564019Y-118425980D01*
X115659257Y-118425980D01*
X115802114Y-118473600D01*
X115849733Y-118521219D01*
X116754495Y-118425980D02*
X116278304Y-118425980D01*
X116230685Y-118902171D01*
X116278304Y-118854552D01*
X116373542Y-118806933D01*
X116611638Y-118806933D01*
X116706876Y-118854552D01*
X116754495Y-118902171D01*
X116802114Y-118997409D01*
X116802114Y-119235504D01*
X116754495Y-119330742D01*
X116706876Y-119378361D01*
X116611638Y-119425980D01*
X116373542Y-119425980D01*
X116278304Y-119378361D01*
X116230685Y-119330742D01*
%TO.C,C7*%
X155297142Y-115076266D02*
X155344761Y-115123885D01*
X155392380Y-115266742D01*
X155392380Y-115361980D01*
X155344761Y-115504838D01*
X155249523Y-115600076D01*
X155154285Y-115647695D01*
X154963809Y-115695314D01*
X154820952Y-115695314D01*
X154630476Y-115647695D01*
X154535238Y-115600076D01*
X154440000Y-115504838D01*
X154392380Y-115361980D01*
X154392380Y-115266742D01*
X154440000Y-115123885D01*
X154487619Y-115076266D01*
X154392380Y-114742933D02*
X154392380Y-114076266D01*
X155392380Y-114504838D01*
%TO.C,J1*%
X98410780Y-101425333D02*
X99125066Y-101425333D01*
X99267923Y-101472952D01*
X99363161Y-101568190D01*
X99410780Y-101711047D01*
X99410780Y-101806285D01*
X99410780Y-100425333D02*
X99410780Y-100996761D01*
X99410780Y-100711047D02*
X98410780Y-100711047D01*
X98553638Y-100806285D01*
X98648876Y-100901523D01*
X98696495Y-100996761D01*
D12*
X93232514Y-95067047D02*
X93232514Y-94686095D01*
X93422990Y-94876571D02*
X93042038Y-94876571D01*
X93422990Y-94186095D02*
X93422990Y-94471809D01*
X93422990Y-94328952D02*
X92922990Y-94328952D01*
X92994419Y-94376571D01*
X93042038Y-94424190D01*
X93065847Y-94471809D01*
X92970609Y-93995619D02*
X92946800Y-93971809D01*
X92922990Y-93924190D01*
X92922990Y-93805142D01*
X92946800Y-93757523D01*
X92970609Y-93733714D01*
X93018228Y-93709904D01*
X93065847Y-93709904D01*
X93137276Y-93733714D01*
X93422990Y-94019428D01*
X93422990Y-93709904D01*
X92922990Y-93567047D02*
X93422990Y-93400380D01*
X92922990Y-93233714D01*
X93589657Y-92948000D02*
X92875371Y-92948000D01*
X92946800Y-92328952D02*
X92922990Y-92376571D01*
X92922990Y-92448000D01*
X92946800Y-92519428D01*
X92994419Y-92567047D01*
X93042038Y-92590857D01*
X93137276Y-92614666D01*
X93208704Y-92614666D01*
X93303942Y-92590857D01*
X93351561Y-92567047D01*
X93399180Y-92519428D01*
X93422990Y-92448000D01*
X93422990Y-92400380D01*
X93399180Y-92328952D01*
X93375371Y-92305142D01*
X93208704Y-92305142D01*
X93208704Y-92400380D01*
X93422990Y-92090857D02*
X92922990Y-92090857D01*
X93422990Y-91805142D01*
X92922990Y-91805142D01*
X93422990Y-91567047D02*
X92922990Y-91567047D01*
X92922990Y-91448000D01*
X92946800Y-91376571D01*
X92994419Y-91328952D01*
X93042038Y-91305142D01*
X93137276Y-91281333D01*
X93208704Y-91281333D01*
X93303942Y-91305142D01*
X93351561Y-91328952D01*
X93399180Y-91376571D01*
X93422990Y-91448000D01*
X93422990Y-91567047D01*
X93589657Y-90948000D02*
X92875371Y-90948000D01*
X93232514Y-90590857D02*
X93232514Y-90209904D01*
X93422990Y-89709904D02*
X93422990Y-89995619D01*
X93422990Y-89852761D02*
X92922990Y-89852761D01*
X92994419Y-89900380D01*
X93042038Y-89948000D01*
X93065847Y-89995619D01*
X92970609Y-89519428D02*
X92946800Y-89495619D01*
X92922990Y-89448000D01*
X92922990Y-89328952D01*
X92946800Y-89281333D01*
X92970609Y-89257523D01*
X93018228Y-89233714D01*
X93065847Y-89233714D01*
X93137276Y-89257523D01*
X93422990Y-89543238D01*
X93422990Y-89233714D01*
X92922990Y-89090857D02*
X93422990Y-88924190D01*
X92922990Y-88757523D01*
%TO.C,J2*%
D11*
X98359980Y-106556133D02*
X99074266Y-106556133D01*
X99217123Y-106603752D01*
X99312361Y-106698990D01*
X99359980Y-106841847D01*
X99359980Y-106937085D01*
X98455219Y-106127561D02*
X98407600Y-106079942D01*
X98359980Y-105984704D01*
X98359980Y-105746609D01*
X98407600Y-105651371D01*
X98455219Y-105603752D01*
X98550457Y-105556133D01*
X98645695Y-105556133D01*
X98788552Y-105603752D01*
X99359980Y-106175180D01*
X99359980Y-105556133D01*
D12*
X92922990Y-118449028D02*
X92922990Y-118139504D01*
X93113466Y-118306171D01*
X93113466Y-118234742D01*
X93137276Y-118187123D01*
X93161085Y-118163314D01*
X93208704Y-118139504D01*
X93327752Y-118139504D01*
X93375371Y-118163314D01*
X93399180Y-118187123D01*
X93422990Y-118234742D01*
X93422990Y-118377600D01*
X93399180Y-118425219D01*
X93375371Y-118449028D01*
X93375371Y-117925219D02*
X93399180Y-117901409D01*
X93422990Y-117925219D01*
X93399180Y-117949028D01*
X93375371Y-117925219D01*
X93422990Y-117925219D01*
X92922990Y-117734742D02*
X92922990Y-117425219D01*
X93113466Y-117591885D01*
X93113466Y-117520457D01*
X93137276Y-117472838D01*
X93161085Y-117449028D01*
X93208704Y-117425219D01*
X93327752Y-117425219D01*
X93375371Y-117449028D01*
X93399180Y-117472838D01*
X93422990Y-117520457D01*
X93422990Y-117663314D01*
X93399180Y-117710933D01*
X93375371Y-117734742D01*
X92922990Y-117282361D02*
X93422990Y-117115695D01*
X92922990Y-116949028D01*
X93589657Y-116663314D02*
X92875371Y-116663314D01*
X92922990Y-116068076D02*
X92922990Y-116306171D01*
X93161085Y-116329980D01*
X93137276Y-116306171D01*
X93113466Y-116258552D01*
X93113466Y-116139504D01*
X93137276Y-116091885D01*
X93161085Y-116068076D01*
X93208704Y-116044266D01*
X93327752Y-116044266D01*
X93375371Y-116068076D01*
X93399180Y-116091885D01*
X93422990Y-116139504D01*
X93422990Y-116258552D01*
X93399180Y-116306171D01*
X93375371Y-116329980D01*
X93375371Y-115829980D02*
X93399180Y-115806171D01*
X93422990Y-115829980D01*
X93399180Y-115853790D01*
X93375371Y-115829980D01*
X93422990Y-115829980D01*
X92922990Y-115496647D02*
X92922990Y-115449028D01*
X92946800Y-115401409D01*
X92970609Y-115377600D01*
X93018228Y-115353790D01*
X93113466Y-115329980D01*
X93232514Y-115329980D01*
X93327752Y-115353790D01*
X93375371Y-115377600D01*
X93399180Y-115401409D01*
X93422990Y-115449028D01*
X93422990Y-115496647D01*
X93399180Y-115544266D01*
X93375371Y-115568076D01*
X93327752Y-115591885D01*
X93232514Y-115615695D01*
X93113466Y-115615695D01*
X93018228Y-115591885D01*
X92970609Y-115568076D01*
X92946800Y-115544266D01*
X92922990Y-115496647D01*
X92922990Y-115187123D02*
X93422990Y-115020457D01*
X92922990Y-114853790D01*
X93613466Y-114163314D02*
X93589657Y-114187123D01*
X93518228Y-114234742D01*
X93470609Y-114258552D01*
X93399180Y-114282361D01*
X93280133Y-114306171D01*
X93184895Y-114306171D01*
X93065847Y-114282361D01*
X92994419Y-114258552D01*
X92946800Y-114234742D01*
X92875371Y-114187123D01*
X92851561Y-114163314D01*
X92922990Y-113877600D02*
X92922990Y-113782361D01*
X92946800Y-113734742D01*
X92994419Y-113687123D01*
X93089657Y-113663314D01*
X93256323Y-113663314D01*
X93351561Y-113687123D01*
X93399180Y-113734742D01*
X93422990Y-113782361D01*
X93422990Y-113877600D01*
X93399180Y-113925219D01*
X93351561Y-113972838D01*
X93256323Y-113996647D01*
X93089657Y-113996647D01*
X92994419Y-113972838D01*
X92946800Y-113925219D01*
X92922990Y-113877600D01*
X93089657Y-113234742D02*
X93422990Y-113234742D01*
X93089657Y-113449028D02*
X93351561Y-113449028D01*
X93399180Y-113425219D01*
X93422990Y-113377600D01*
X93422990Y-113306171D01*
X93399180Y-113258552D01*
X93375371Y-113234742D01*
X93089657Y-113068076D02*
X93089657Y-112877600D01*
X92922990Y-112996647D02*
X93351561Y-112996647D01*
X93399180Y-112972838D01*
X93422990Y-112925219D01*
X93422990Y-112877600D01*
X93089657Y-112710933D02*
X93589657Y-112710933D01*
X93113466Y-112710933D02*
X93089657Y-112663314D01*
X93089657Y-112568076D01*
X93113466Y-112520457D01*
X93137276Y-112496647D01*
X93184895Y-112472838D01*
X93327752Y-112472838D01*
X93375371Y-112496647D01*
X93399180Y-112520457D01*
X93422990Y-112568076D01*
X93422990Y-112663314D01*
X93399180Y-112710933D01*
X93089657Y-112044266D02*
X93422990Y-112044266D01*
X93089657Y-112258552D02*
X93351561Y-112258552D01*
X93399180Y-112234742D01*
X93422990Y-112187123D01*
X93422990Y-112115695D01*
X93399180Y-112068076D01*
X93375371Y-112044266D01*
X93089657Y-111877600D02*
X93089657Y-111687123D01*
X92922990Y-111806171D02*
X93351561Y-111806171D01*
X93399180Y-111782361D01*
X93422990Y-111734742D01*
X93422990Y-111687123D01*
X93422990Y-110853790D02*
X93184895Y-111020457D01*
X93422990Y-111139504D02*
X92922990Y-111139504D01*
X92922990Y-110949028D01*
X92946800Y-110901409D01*
X92970609Y-110877600D01*
X93018228Y-110853790D01*
X93089657Y-110853790D01*
X93137276Y-110877600D01*
X93161085Y-110901409D01*
X93184895Y-110949028D01*
X93184895Y-111139504D01*
X93399180Y-110449028D02*
X93422990Y-110496647D01*
X93422990Y-110591885D01*
X93399180Y-110639504D01*
X93351561Y-110663314D01*
X93161085Y-110663314D01*
X93113466Y-110639504D01*
X93089657Y-110591885D01*
X93089657Y-110496647D01*
X93113466Y-110449028D01*
X93161085Y-110425219D01*
X93208704Y-110425219D01*
X93256323Y-110663314D01*
X93089657Y-110282361D02*
X93089657Y-110091885D01*
X93422990Y-110210933D02*
X92994419Y-110210933D01*
X92946800Y-110187123D01*
X92922990Y-110139504D01*
X92922990Y-110091885D01*
X93399180Y-109734742D02*
X93422990Y-109782361D01*
X93422990Y-109877600D01*
X93399180Y-109925219D01*
X93351561Y-109949028D01*
X93161085Y-109949028D01*
X93113466Y-109925219D01*
X93089657Y-109877600D01*
X93089657Y-109782361D01*
X93113466Y-109734742D01*
X93161085Y-109710933D01*
X93208704Y-109710933D01*
X93256323Y-109949028D01*
X93422990Y-109496647D02*
X93089657Y-109496647D01*
X93184895Y-109496647D02*
X93137276Y-109472838D01*
X93113466Y-109449028D01*
X93089657Y-109401409D01*
X93089657Y-109353790D01*
X93399180Y-108996647D02*
X93422990Y-109044266D01*
X93422990Y-109139504D01*
X93399180Y-109187123D01*
X93351561Y-109210933D01*
X93161085Y-109210933D01*
X93113466Y-109187123D01*
X93089657Y-109139504D01*
X93089657Y-109044266D01*
X93113466Y-108996647D01*
X93161085Y-108972838D01*
X93208704Y-108972838D01*
X93256323Y-109210933D01*
X93089657Y-108758552D02*
X93422990Y-108758552D01*
X93137276Y-108758552D02*
X93113466Y-108734742D01*
X93089657Y-108687123D01*
X93089657Y-108615695D01*
X93113466Y-108568076D01*
X93161085Y-108544266D01*
X93422990Y-108544266D01*
X93399180Y-108091885D02*
X93422990Y-108139504D01*
X93422990Y-108234742D01*
X93399180Y-108282361D01*
X93375371Y-108306171D01*
X93327752Y-108329980D01*
X93184895Y-108329980D01*
X93137276Y-108306171D01*
X93113466Y-108282361D01*
X93089657Y-108234742D01*
X93089657Y-108139504D01*
X93113466Y-108091885D01*
X93399180Y-107687123D02*
X93422990Y-107734742D01*
X93422990Y-107829980D01*
X93399180Y-107877600D01*
X93351561Y-107901409D01*
X93161085Y-107901409D01*
X93113466Y-107877600D01*
X93089657Y-107829980D01*
X93089657Y-107734742D01*
X93113466Y-107687123D01*
X93161085Y-107663314D01*
X93208704Y-107663314D01*
X93256323Y-107901409D01*
X93613466Y-107496647D02*
X93589657Y-107472838D01*
X93518228Y-107425219D01*
X93470609Y-107401409D01*
X93399180Y-107377600D01*
X93280133Y-107353790D01*
X93184895Y-107353790D01*
X93065847Y-107377600D01*
X92994419Y-107401409D01*
X92946800Y-107425219D01*
X92875371Y-107472838D01*
X92851561Y-107496647D01*
%TO.C,J3*%
D11*
X142747580Y-89792133D02*
X143461866Y-89792133D01*
X143604723Y-89839752D01*
X143699961Y-89934990D01*
X143747580Y-90077847D01*
X143747580Y-90173085D01*
X142747580Y-89411180D02*
X142747580Y-88792133D01*
X143128533Y-89125466D01*
X143128533Y-88982609D01*
X143176152Y-88887371D01*
X143223771Y-88839752D01*
X143319009Y-88792133D01*
X143557104Y-88792133D01*
X143652342Y-88839752D01*
X143699961Y-88887371D01*
X143747580Y-88982609D01*
X143747580Y-89268323D01*
X143699961Y-89363561D01*
X143652342Y-89411180D01*
D12*
X154941390Y-94744514D02*
X154941390Y-94434990D01*
X155131866Y-94601657D01*
X155131866Y-94530228D01*
X155155676Y-94482609D01*
X155179485Y-94458800D01*
X155227104Y-94434990D01*
X155346152Y-94434990D01*
X155393771Y-94458800D01*
X155417580Y-94482609D01*
X155441390Y-94530228D01*
X155441390Y-94673085D01*
X155417580Y-94720704D01*
X155393771Y-94744514D01*
X155393771Y-94220704D02*
X155417580Y-94196895D01*
X155441390Y-94220704D01*
X155417580Y-94244514D01*
X155393771Y-94220704D01*
X155441390Y-94220704D01*
X154941390Y-94030228D02*
X154941390Y-93720704D01*
X155131866Y-93887371D01*
X155131866Y-93815942D01*
X155155676Y-93768323D01*
X155179485Y-93744514D01*
X155227104Y-93720704D01*
X155346152Y-93720704D01*
X155393771Y-93744514D01*
X155417580Y-93768323D01*
X155441390Y-93815942D01*
X155441390Y-93958800D01*
X155417580Y-94006419D01*
X155393771Y-94030228D01*
X154941390Y-93577847D02*
X155441390Y-93411180D01*
X154941390Y-93244514D01*
X155608057Y-92577847D02*
X154893771Y-92577847D01*
X154941390Y-91601657D02*
X154941390Y-91839752D01*
X155179485Y-91863561D01*
X155155676Y-91839752D01*
X155131866Y-91792133D01*
X155131866Y-91673085D01*
X155155676Y-91625466D01*
X155179485Y-91601657D01*
X155227104Y-91577847D01*
X155346152Y-91577847D01*
X155393771Y-91601657D01*
X155417580Y-91625466D01*
X155441390Y-91673085D01*
X155441390Y-91792133D01*
X155417580Y-91839752D01*
X155393771Y-91863561D01*
X155393771Y-91363561D02*
X155417580Y-91339752D01*
X155441390Y-91363561D01*
X155417580Y-91387371D01*
X155393771Y-91363561D01*
X155441390Y-91363561D01*
X154941390Y-91030228D02*
X154941390Y-90982609D01*
X154965200Y-90934990D01*
X154989009Y-90911180D01*
X155036628Y-90887371D01*
X155131866Y-90863561D01*
X155250914Y-90863561D01*
X155346152Y-90887371D01*
X155393771Y-90911180D01*
X155417580Y-90934990D01*
X155441390Y-90982609D01*
X155441390Y-91030228D01*
X155417580Y-91077847D01*
X155393771Y-91101657D01*
X155346152Y-91125466D01*
X155250914Y-91149276D01*
X155131866Y-91149276D01*
X155036628Y-91125466D01*
X154989009Y-91101657D01*
X154965200Y-91077847D01*
X154941390Y-91030228D01*
X154941390Y-90720704D02*
X155441390Y-90554038D01*
X154941390Y-90387371D01*
X154941390Y-89911180D02*
X155441390Y-89744514D01*
X154941390Y-89577847D01*
X155441390Y-89339752D02*
X155417580Y-89387371D01*
X155393771Y-89411180D01*
X155346152Y-89434990D01*
X155203295Y-89434990D01*
X155155676Y-89411180D01*
X155131866Y-89387371D01*
X155108057Y-89339752D01*
X155108057Y-89268323D01*
X155131866Y-89220704D01*
X155155676Y-89196895D01*
X155203295Y-89173085D01*
X155346152Y-89173085D01*
X155393771Y-89196895D01*
X155417580Y-89220704D01*
X155441390Y-89268323D01*
X155441390Y-89339752D01*
X155441390Y-88887371D02*
X155417580Y-88934990D01*
X155369961Y-88958800D01*
X154941390Y-88958800D01*
X155108057Y-88768323D02*
X155108057Y-88577847D01*
X154941390Y-88696895D02*
X155369961Y-88696895D01*
X155417580Y-88673085D01*
X155441390Y-88625466D01*
X155441390Y-88577847D01*
X155441390Y-88196895D02*
X155179485Y-88196895D01*
X155131866Y-88220704D01*
X155108057Y-88268323D01*
X155108057Y-88363561D01*
X155131866Y-88411180D01*
X155417580Y-88196895D02*
X155441390Y-88244514D01*
X155441390Y-88363561D01*
X155417580Y-88411180D01*
X155369961Y-88434990D01*
X155322342Y-88434990D01*
X155274723Y-88411180D01*
X155250914Y-88363561D01*
X155250914Y-88244514D01*
X155227104Y-88196895D01*
X155108057Y-87744514D02*
X155512819Y-87744514D01*
X155560438Y-87768323D01*
X155584247Y-87792133D01*
X155608057Y-87839752D01*
X155608057Y-87911180D01*
X155584247Y-87958800D01*
X155417580Y-87744514D02*
X155441390Y-87792133D01*
X155441390Y-87887371D01*
X155417580Y-87934990D01*
X155393771Y-87958800D01*
X155346152Y-87982609D01*
X155203295Y-87982609D01*
X155155676Y-87958800D01*
X155131866Y-87934990D01*
X155108057Y-87887371D01*
X155108057Y-87792133D01*
X155131866Y-87744514D01*
X155417580Y-87315942D02*
X155441390Y-87363561D01*
X155441390Y-87458800D01*
X155417580Y-87506419D01*
X155369961Y-87530228D01*
X155179485Y-87530228D01*
X155131866Y-87506419D01*
X155108057Y-87458800D01*
X155108057Y-87363561D01*
X155131866Y-87315942D01*
X155179485Y-87292133D01*
X155227104Y-87292133D01*
X155274723Y-87530228D01*
X155393771Y-86411180D02*
X155417580Y-86434990D01*
X155441390Y-86506419D01*
X155441390Y-86554038D01*
X155417580Y-86625466D01*
X155369961Y-86673085D01*
X155322342Y-86696895D01*
X155227104Y-86720704D01*
X155155676Y-86720704D01*
X155060438Y-86696895D01*
X155012819Y-86673085D01*
X154965200Y-86625466D01*
X154941390Y-86554038D01*
X154941390Y-86506419D01*
X154965200Y-86434990D01*
X154989009Y-86411180D01*
X155441390Y-86125466D02*
X155417580Y-86173085D01*
X155393771Y-86196895D01*
X155346152Y-86220704D01*
X155203295Y-86220704D01*
X155155676Y-86196895D01*
X155131866Y-86173085D01*
X155108057Y-86125466D01*
X155108057Y-86054038D01*
X155131866Y-86006419D01*
X155155676Y-85982609D01*
X155203295Y-85958800D01*
X155346152Y-85958800D01*
X155393771Y-85982609D01*
X155417580Y-86006419D01*
X155441390Y-86054038D01*
X155441390Y-86125466D01*
X155108057Y-85744514D02*
X155441390Y-85744514D01*
X155155676Y-85744514D02*
X155131866Y-85720704D01*
X155108057Y-85673085D01*
X155108057Y-85601657D01*
X155131866Y-85554038D01*
X155179485Y-85530228D01*
X155441390Y-85530228D01*
X155108057Y-85363561D02*
X155108057Y-85173085D01*
X154941390Y-85292133D02*
X155369961Y-85292133D01*
X155417580Y-85268323D01*
X155441390Y-85220704D01*
X155441390Y-85173085D01*
X155441390Y-85006419D02*
X155108057Y-85006419D01*
X155203295Y-85006419D02*
X155155676Y-84982609D01*
X155131866Y-84958800D01*
X155108057Y-84911180D01*
X155108057Y-84863561D01*
X155441390Y-84625466D02*
X155417580Y-84673085D01*
X155393771Y-84696895D01*
X155346152Y-84720704D01*
X155203295Y-84720704D01*
X155155676Y-84696895D01*
X155131866Y-84673085D01*
X155108057Y-84625466D01*
X155108057Y-84554038D01*
X155131866Y-84506419D01*
X155155676Y-84482609D01*
X155203295Y-84458800D01*
X155346152Y-84458800D01*
X155393771Y-84482609D01*
X155417580Y-84506419D01*
X155441390Y-84554038D01*
X155441390Y-84625466D01*
X155441390Y-84173085D02*
X155417580Y-84220704D01*
X155369961Y-84244514D01*
X154941390Y-84244514D01*
%TO.C,J4*%
D11*
X142645980Y-101933333D02*
X143360266Y-101933333D01*
X143503123Y-101980952D01*
X143598361Y-102076190D01*
X143645980Y-102219047D01*
X143645980Y-102314285D01*
X142979314Y-101028571D02*
X143645980Y-101028571D01*
X142598361Y-101266666D02*
X143312647Y-101504761D01*
X143312647Y-100885714D01*
D12*
X155339790Y-103719047D02*
X154839790Y-103719047D01*
X154839790Y-103528571D01*
X154863600Y-103480952D01*
X154887409Y-103457142D01*
X154935028Y-103433333D01*
X155006457Y-103433333D01*
X155054076Y-103457142D01*
X155077885Y-103480952D01*
X155101695Y-103528571D01*
X155101695Y-103719047D01*
X154839790Y-103266666D02*
X155339790Y-103147619D01*
X154982647Y-103052380D01*
X155339790Y-102957142D01*
X154839790Y-102838095D01*
X155339790Y-102647619D02*
X154839790Y-102647619D01*
X155196933Y-102480952D01*
X154839790Y-102314285D01*
X155339790Y-102314285D01*
X154839790Y-101600000D02*
X154839790Y-101504761D01*
X154863600Y-101457142D01*
X154911219Y-101409523D01*
X155006457Y-101385714D01*
X155173123Y-101385714D01*
X155268361Y-101409523D01*
X155315980Y-101457142D01*
X155339790Y-101504761D01*
X155339790Y-101600000D01*
X155315980Y-101647619D01*
X155268361Y-101695238D01*
X155173123Y-101719047D01*
X155006457Y-101719047D01*
X154911219Y-101695238D01*
X154863600Y-101647619D01*
X154839790Y-101600000D01*
X155006457Y-100957142D02*
X155339790Y-100957142D01*
X155006457Y-101171428D02*
X155268361Y-101171428D01*
X155315980Y-101147619D01*
X155339790Y-101100000D01*
X155339790Y-101028571D01*
X155315980Y-100980952D01*
X155292171Y-100957142D01*
X155006457Y-100790476D02*
X155006457Y-100600000D01*
X154839790Y-100719047D02*
X155268361Y-100719047D01*
X155315980Y-100695238D01*
X155339790Y-100647619D01*
X155339790Y-100600000D01*
X155006457Y-100433333D02*
X155506457Y-100433333D01*
X155030266Y-100433333D02*
X155006457Y-100385714D01*
X155006457Y-100290476D01*
X155030266Y-100242857D01*
X155054076Y-100219047D01*
X155101695Y-100195238D01*
X155244552Y-100195238D01*
X155292171Y-100219047D01*
X155315980Y-100242857D01*
X155339790Y-100290476D01*
X155339790Y-100385714D01*
X155315980Y-100433333D01*
X155006457Y-99766666D02*
X155339790Y-99766666D01*
X155006457Y-99980952D02*
X155268361Y-99980952D01*
X155315980Y-99957142D01*
X155339790Y-99909523D01*
X155339790Y-99838095D01*
X155315980Y-99790476D01*
X155292171Y-99766666D01*
X155006457Y-99600000D02*
X155006457Y-99409523D01*
X154839790Y-99528571D02*
X155268361Y-99528571D01*
X155315980Y-99504761D01*
X155339790Y-99457142D01*
X155339790Y-99409523D01*
%TO.C,Q1*%
D11*
X139350761Y-88888819D02*
X139255523Y-88841200D01*
X139160285Y-88745961D01*
X139017428Y-88603104D01*
X138922190Y-88555485D01*
X138826952Y-88555485D01*
X138874571Y-88793580D02*
X138779333Y-88745961D01*
X138684095Y-88650723D01*
X138636476Y-88460247D01*
X138636476Y-88126914D01*
X138684095Y-87936438D01*
X138779333Y-87841200D01*
X138874571Y-87793580D01*
X139065047Y-87793580D01*
X139160285Y-87841200D01*
X139255523Y-87936438D01*
X139303142Y-88126914D01*
X139303142Y-88460247D01*
X139255523Y-88650723D01*
X139160285Y-88745961D01*
X139065047Y-88793580D01*
X138874571Y-88793580D01*
X140255523Y-88793580D02*
X139684095Y-88793580D01*
X139969809Y-88793580D02*
X139969809Y-87793580D01*
X139874571Y-87936438D01*
X139779333Y-88031676D01*
X139684095Y-88079295D01*
%TO.C,R2*%
X112415580Y-98159866D02*
X111939390Y-98493200D01*
X112415580Y-98731295D02*
X111415580Y-98731295D01*
X111415580Y-98350342D01*
X111463200Y-98255104D01*
X111510819Y-98207485D01*
X111606057Y-98159866D01*
X111748914Y-98159866D01*
X111844152Y-98207485D01*
X111891771Y-98255104D01*
X111939390Y-98350342D01*
X111939390Y-98731295D01*
X111510819Y-97778914D02*
X111463200Y-97731295D01*
X111415580Y-97636057D01*
X111415580Y-97397961D01*
X111463200Y-97302723D01*
X111510819Y-97255104D01*
X111606057Y-97207485D01*
X111701295Y-97207485D01*
X111844152Y-97255104D01*
X112415580Y-97826533D01*
X112415580Y-97207485D01*
%TO.C,R4*%
X123988533Y-91943180D02*
X123655200Y-91466990D01*
X123417104Y-91943180D02*
X123417104Y-90943180D01*
X123798057Y-90943180D01*
X123893295Y-90990800D01*
X123940914Y-91038419D01*
X123988533Y-91133657D01*
X123988533Y-91276514D01*
X123940914Y-91371752D01*
X123893295Y-91419371D01*
X123798057Y-91466990D01*
X123417104Y-91466990D01*
X124845676Y-91276514D02*
X124845676Y-91943180D01*
X124607580Y-90895561D02*
X124369485Y-91609847D01*
X124988533Y-91609847D01*
%TO.C,R5*%
X132481580Y-95061066D02*
X132005390Y-95394400D01*
X132481580Y-95632495D02*
X131481580Y-95632495D01*
X131481580Y-95251542D01*
X131529200Y-95156304D01*
X131576819Y-95108685D01*
X131672057Y-95061066D01*
X131814914Y-95061066D01*
X131910152Y-95108685D01*
X131957771Y-95156304D01*
X132005390Y-95251542D01*
X132005390Y-95632495D01*
X131481580Y-94156304D02*
X131481580Y-94632495D01*
X131957771Y-94680114D01*
X131910152Y-94632495D01*
X131862533Y-94537257D01*
X131862533Y-94299161D01*
X131910152Y-94203923D01*
X131957771Y-94156304D01*
X132053009Y-94108685D01*
X132291104Y-94108685D01*
X132386342Y-94156304D01*
X132433961Y-94203923D01*
X132481580Y-94299161D01*
X132481580Y-94537257D01*
X132433961Y-94632495D01*
X132386342Y-94680114D01*
%TO.C,R6*%
X135977333Y-87929980D02*
X135644000Y-87453790D01*
X135405904Y-87929980D02*
X135405904Y-86929980D01*
X135786857Y-86929980D01*
X135882095Y-86977600D01*
X135929714Y-87025219D01*
X135977333Y-87120457D01*
X135977333Y-87263314D01*
X135929714Y-87358552D01*
X135882095Y-87406171D01*
X135786857Y-87453790D01*
X135405904Y-87453790D01*
X136834476Y-86929980D02*
X136644000Y-86929980D01*
X136548761Y-86977600D01*
X136501142Y-87025219D01*
X136405904Y-87168076D01*
X136358285Y-87358552D01*
X136358285Y-87739504D01*
X136405904Y-87834742D01*
X136453523Y-87882361D01*
X136548761Y-87929980D01*
X136739238Y-87929980D01*
X136834476Y-87882361D01*
X136882095Y-87834742D01*
X136929714Y-87739504D01*
X136929714Y-87501409D01*
X136882095Y-87406171D01*
X136834476Y-87358552D01*
X136739238Y-87310933D01*
X136548761Y-87310933D01*
X136453523Y-87358552D01*
X136405904Y-87406171D01*
X136358285Y-87501409D01*
%TO.C,R7*%
X132125980Y-112333066D02*
X131649790Y-112666400D01*
X132125980Y-112904495D02*
X131125980Y-112904495D01*
X131125980Y-112523542D01*
X131173600Y-112428304D01*
X131221219Y-112380685D01*
X131316457Y-112333066D01*
X131459314Y-112333066D01*
X131554552Y-112380685D01*
X131602171Y-112428304D01*
X131649790Y-112523542D01*
X131649790Y-112904495D01*
X131125980Y-111999733D02*
X131125980Y-111333066D01*
X132125980Y-111761638D01*
%TO.C,R8*%
X124140933Y-96311980D02*
X123807600Y-95835790D01*
X123569504Y-96311980D02*
X123569504Y-95311980D01*
X123950457Y-95311980D01*
X124045695Y-95359600D01*
X124093314Y-95407219D01*
X124140933Y-95502457D01*
X124140933Y-95645314D01*
X124093314Y-95740552D01*
X124045695Y-95788171D01*
X123950457Y-95835790D01*
X123569504Y-95835790D01*
X124712361Y-95740552D02*
X124617123Y-95692933D01*
X124569504Y-95645314D01*
X124521885Y-95550076D01*
X124521885Y-95502457D01*
X124569504Y-95407219D01*
X124617123Y-95359600D01*
X124712361Y-95311980D01*
X124902838Y-95311980D01*
X124998076Y-95359600D01*
X125045695Y-95407219D01*
X125093314Y-95502457D01*
X125093314Y-95550076D01*
X125045695Y-95645314D01*
X124998076Y-95692933D01*
X124902838Y-95740552D01*
X124712361Y-95740552D01*
X124617123Y-95788171D01*
X124569504Y-95835790D01*
X124521885Y-95931028D01*
X124521885Y-96121504D01*
X124569504Y-96216742D01*
X124617123Y-96264361D01*
X124712361Y-96311980D01*
X124902838Y-96311980D01*
X124998076Y-96264361D01*
X125045695Y-96216742D01*
X125093314Y-96121504D01*
X125093314Y-95931028D01*
X125045695Y-95835790D01*
X124998076Y-95788171D01*
X124902838Y-95740552D01*
%TO.C,R10*%
X124020342Y-104236780D02*
X123687009Y-103760590D01*
X123448914Y-104236780D02*
X123448914Y-103236780D01*
X123829866Y-103236780D01*
X123925104Y-103284400D01*
X123972723Y-103332019D01*
X124020342Y-103427257D01*
X124020342Y-103570114D01*
X123972723Y-103665352D01*
X123925104Y-103712971D01*
X123829866Y-103760590D01*
X123448914Y-103760590D01*
X124972723Y-104236780D02*
X124401295Y-104236780D01*
X124687009Y-104236780D02*
X124687009Y-103236780D01*
X124591771Y-103379638D01*
X124496533Y-103474876D01*
X124401295Y-103522495D01*
X125591771Y-103236780D02*
X125687009Y-103236780D01*
X125782247Y-103284400D01*
X125829866Y-103332019D01*
X125877485Y-103427257D01*
X125925104Y-103617733D01*
X125925104Y-103855828D01*
X125877485Y-104046304D01*
X125829866Y-104141542D01*
X125782247Y-104189161D01*
X125687009Y-104236780D01*
X125591771Y-104236780D01*
X125496533Y-104189161D01*
X125448914Y-104141542D01*
X125401295Y-104046304D01*
X125353676Y-103855828D01*
X125353676Y-103617733D01*
X125401295Y-103427257D01*
X125448914Y-103332019D01*
X125496533Y-103284400D01*
X125591771Y-103236780D01*
%TO.C,U1*%
X117261180Y-88239504D02*
X118070704Y-88239504D01*
X118165942Y-88191885D01*
X118213561Y-88144266D01*
X118261180Y-88049028D01*
X118261180Y-87858552D01*
X118213561Y-87763314D01*
X118165942Y-87715695D01*
X118070704Y-87668076D01*
X117261180Y-87668076D01*
X118261180Y-86668076D02*
X118261180Y-87239504D01*
X118261180Y-86953790D02*
X117261180Y-86953790D01*
X117404038Y-87049028D01*
X117499276Y-87144266D01*
X117546895Y-87239504D01*
%TO.C,U2*%
X120599295Y-103084380D02*
X120599295Y-103893904D01*
X120646914Y-103989142D01*
X120694533Y-104036761D01*
X120789771Y-104084380D01*
X120980247Y-104084380D01*
X121075485Y-104036761D01*
X121123104Y-103989142D01*
X121170723Y-103893904D01*
X121170723Y-103084380D01*
X121599295Y-103179619D02*
X121646914Y-103132000D01*
X121742152Y-103084380D01*
X121980247Y-103084380D01*
X122075485Y-103132000D01*
X122123104Y-103179619D01*
X122170723Y-103274857D01*
X122170723Y-103370095D01*
X122123104Y-103512952D01*
X121551676Y-104084380D01*
X122170723Y-104084380D01*
%TO.C,U3*%
X138898380Y-114198304D02*
X139707904Y-114198304D01*
X139803142Y-114150685D01*
X139850761Y-114103066D01*
X139898380Y-114007828D01*
X139898380Y-113817352D01*
X139850761Y-113722114D01*
X139803142Y-113674495D01*
X139707904Y-113626876D01*
X138898380Y-113626876D01*
X138898380Y-113245923D02*
X138898380Y-112626876D01*
X139279333Y-112960209D01*
X139279333Y-112817352D01*
X139326952Y-112722114D01*
X139374571Y-112674495D01*
X139469809Y-112626876D01*
X139707904Y-112626876D01*
X139803142Y-112674495D01*
X139850761Y-112722114D01*
X139898380Y-112817352D01*
X139898380Y-113103066D01*
X139850761Y-113198304D01*
X139803142Y-113245923D01*
%TD*%
M02*
